<mxfile host="app.diagrams.net" modified="2024-04-07T19:51:17.338Z" agent="Mozilla/5.0 (Windows NT 10.0; Win64; x64) AppleWebKit/537.36 (KHTML, like Gecko) Chrome/123.0.0.0 Safari/537.36" etag="DqGylewiJFp5cA9urXAr" version="24.1.0" type="device">
  <diagram name="Page-1" id="d7q8PZMgeNmFz-OeDs46">
    <mxGraphModel dx="1395" dy="643" grid="1" gridSize="10" guides="1" tooltips="1" connect="1" arrows="1" fold="1" page="1" pageScale="1" pageWidth="850" pageHeight="1100" math="0" shadow="0">
      <root>
        <mxCell id="0" />
        <mxCell id="1" parent="0" />
        <mxCell id="xGdSi-OeFkMIGdHeow2S-20" value="&lt;&lt;interface&gt;&gt;&#xa;Updatable" style="swimlane;fontStyle=1;align=center;verticalAlign=top;childLayout=stackLayout;horizontal=1;startSize=48;horizontalStack=0;resizeParent=1;resizeParentMax=0;resizeLast=0;collapsible=0;marginBottom=0;" vertex="1" parent="1">
          <mxGeometry x="302" y="239" width="131" height="88" as="geometry" />
        </mxCell>
        <mxCell id="xGdSi-OeFkMIGdHeow2S-21" style="line;strokeWidth=1;fillColor=none;align=left;verticalAlign=middle;spacingTop=-1;spacingLeft=3;spacingRight=3;rotatable=0;labelPosition=right;points=[];portConstraint=eastwest;strokeColor=inherit;" vertex="1" parent="xGdSi-OeFkMIGdHeow2S-20">
          <mxGeometry y="48" width="131" height="8" as="geometry" />
        </mxCell>
        <mxCell id="xGdSi-OeFkMIGdHeow2S-22" value="+update(): void" style="text;strokeColor=none;fillColor=none;align=left;verticalAlign=top;spacingLeft=4;spacingRight=4;overflow=hidden;rotatable=0;points=[[0,0.5],[1,0.5]];portConstraint=eastwest;" vertex="1" parent="xGdSi-OeFkMIGdHeow2S-20">
          <mxGeometry y="56" width="131" height="32" as="geometry" />
        </mxCell>
        <mxCell id="xGdSi-OeFkMIGdHeow2S-23" value="ElevatorNodeController" style="swimlane;fontStyle=1;align=center;verticalAlign=top;childLayout=stackLayout;horizontal=1;startSize=25.25;horizontalStack=0;resizeParent=1;resizeParentMax=0;resizeLast=0;collapsible=0;marginBottom=0;" vertex="1" parent="1">
          <mxGeometry x="36" y="1087" width="295" height="308.25" as="geometry" />
        </mxCell>
        <mxCell id="xGdSi-OeFkMIGdHeow2S-24" value="-elevatorNode: ElevatorNode" style="text;strokeColor=none;fillColor=none;align=left;verticalAlign=top;spacingLeft=4;spacingRight=4;overflow=hidden;rotatable=0;points=[[0,0.5],[1,0.5]];portConstraint=eastwest;" vertex="1" parent="xGdSi-OeFkMIGdHeow2S-23">
          <mxGeometry y="25.25" width="295" height="25" as="geometry" />
        </mxCell>
        <mxCell id="xGdSi-OeFkMIGdHeow2S-25" style="line;strokeWidth=1;fillColor=none;align=left;verticalAlign=middle;spacingTop=-1;spacingLeft=3;spacingRight=3;rotatable=0;labelPosition=right;points=[];portConstraint=eastwest;strokeColor=inherit;" vertex="1" parent="xGdSi-OeFkMIGdHeow2S-23">
          <mxGeometry y="50.25" width="295" height="8" as="geometry" />
        </mxCell>
        <mxCell id="xGdSi-OeFkMIGdHeow2S-26" value="+initialize(URL, ResourceBundle): void" style="text;strokeColor=none;fillColor=none;align=left;verticalAlign=top;spacingLeft=4;spacingRight=4;overflow=hidden;rotatable=0;points=[[0,0.5],[1,0.5]];portConstraint=eastwest;" vertex="1" parent="xGdSi-OeFkMIGdHeow2S-23">
          <mxGeometry y="58.25" width="295" height="25" as="geometry" />
        </mxCell>
        <mxCell id="xGdSi-OeFkMIGdHeow2S-27" value="+update(): void" style="text;strokeColor=none;fillColor=none;align=left;verticalAlign=top;spacingLeft=4;spacingRight=4;overflow=hidden;rotatable=0;points=[[0,0.5],[1,0.5]];portConstraint=eastwest;" vertex="1" parent="xGdSi-OeFkMIGdHeow2S-23">
          <mxGeometry y="83.25" width="295" height="25" as="geometry" />
        </mxCell>
        <mxCell id="xGdSi-OeFkMIGdHeow2S-28" value="-updateSlider(): void" style="text;strokeColor=none;fillColor=none;align=left;verticalAlign=top;spacingLeft=4;spacingRight=4;overflow=hidden;rotatable=0;points=[[0,0.5],[1,0.5]];portConstraint=eastwest;" vertex="1" parent="xGdSi-OeFkMIGdHeow2S-23">
          <mxGeometry y="108.25" width="295" height="25" as="geometry" />
        </mxCell>
        <mxCell id="xGdSi-OeFkMIGdHeow2S-29" value="-updateStatus(): void" style="text;strokeColor=none;fillColor=none;align=left;verticalAlign=top;spacingLeft=4;spacingRight=4;overflow=hidden;rotatable=0;points=[[0,0.5],[1,0.5]];portConstraint=eastwest;" vertex="1" parent="xGdSi-OeFkMIGdHeow2S-23">
          <mxGeometry y="133.25" width="295" height="25" as="geometry" />
        </mxCell>
        <mxCell id="xGdSi-OeFkMIGdHeow2S-30" value="-updateCommStatus(): void" style="text;strokeColor=none;fillColor=none;align=left;verticalAlign=top;spacingLeft=4;spacingRight=4;overflow=hidden;rotatable=0;points=[[0,0.5],[1,0.5]];portConstraint=eastwest;" vertex="1" parent="xGdSi-OeFkMIGdHeow2S-23">
          <mxGeometry y="158.25" width="295" height="25" as="geometry" />
        </mxCell>
        <mxCell id="xGdSi-OeFkMIGdHeow2S-31" value="-updateData(): void" style="text;strokeColor=none;fillColor=none;align=left;verticalAlign=top;spacingLeft=4;spacingRight=4;overflow=hidden;rotatable=0;points=[[0,0.5],[1,0.5]];portConstraint=eastwest;" vertex="1" parent="xGdSi-OeFkMIGdHeow2S-23">
          <mxGeometry y="183.25" width="295" height="25" as="geometry" />
        </mxCell>
        <mxCell id="xGdSi-OeFkMIGdHeow2S-32" value="-updateEventLog(): void" style="text;strokeColor=none;fillColor=none;align=left;verticalAlign=top;spacingLeft=4;spacingRight=4;overflow=hidden;rotatable=0;points=[[0,0.5],[1,0.5]];portConstraint=eastwest;" vertex="1" parent="xGdSi-OeFkMIGdHeow2S-23">
          <mxGeometry y="208.25" width="295" height="25" as="geometry" />
        </mxCell>
        <mxCell id="xGdSi-OeFkMIGdHeow2S-33" value="+injectStuckHandler(): void" style="text;strokeColor=none;fillColor=none;align=left;verticalAlign=top;spacingLeft=4;spacingRight=4;overflow=hidden;rotatable=0;points=[[0,0.5],[1,0.5]];portConstraint=eastwest;" vertex="1" parent="xGdSi-OeFkMIGdHeow2S-23">
          <mxGeometry y="233.25" width="295" height="25" as="geometry" />
        </mxCell>
        <mxCell id="xGdSi-OeFkMIGdHeow2S-34" value="+injectDoorStuckHandler(): void" style="text;strokeColor=none;fillColor=none;align=left;verticalAlign=top;spacingLeft=4;spacingRight=4;overflow=hidden;rotatable=0;points=[[0,0.5],[1,0.5]];portConstraint=eastwest;" vertex="1" parent="xGdSi-OeFkMIGdHeow2S-23">
          <mxGeometry y="258.25" width="295" height="25" as="geometry" />
        </mxCell>
        <mxCell id="xGdSi-OeFkMIGdHeow2S-35" value="+close(): void" style="text;strokeColor=none;fillColor=none;align=left;verticalAlign=top;spacingLeft=4;spacingRight=4;overflow=hidden;rotatable=0;points=[[0,0.5],[1,0.5]];portConstraint=eastwest;" vertex="1" parent="xGdSi-OeFkMIGdHeow2S-23">
          <mxGeometry y="283.25" width="295" height="25" as="geometry" />
        </mxCell>
        <mxCell id="xGdSi-OeFkMIGdHeow2S-36" value="ElevatorSubsystemController" style="swimlane;fontStyle=1;align=center;verticalAlign=top;childLayout=stackLayout;horizontal=1;startSize=26.857142857142858;horizontalStack=0;resizeParent=1;resizeParentMax=0;resizeLast=0;collapsible=0;marginBottom=0;" vertex="1" parent="1">
          <mxGeometry x="129" y="657" width="295" height="196.85714285714286" as="geometry" />
        </mxCell>
        <mxCell id="xGdSi-OeFkMIGdHeow2S-37" value="-elevatorPages: ArrayList" style="text;strokeColor=none;fillColor=none;align=left;verticalAlign=top;spacingLeft=4;spacingRight=4;overflow=hidden;rotatable=0;points=[[0,0.5],[1,0.5]];portConstraint=eastwest;" vertex="1" parent="xGdSi-OeFkMIGdHeow2S-36">
          <mxGeometry y="26.857142857142858" width="295" height="27" as="geometry" />
        </mxCell>
        <mxCell id="xGdSi-OeFkMIGdHeow2S-38" value="-started: boolean" style="text;strokeColor=none;fillColor=none;align=left;verticalAlign=top;spacingLeft=4;spacingRight=4;overflow=hidden;rotatable=0;points=[[0,0.5],[1,0.5]];portConstraint=eastwest;" vertex="1" parent="xGdSi-OeFkMIGdHeow2S-36">
          <mxGeometry y="53.85714285714286" width="295" height="27" as="geometry" />
        </mxCell>
        <mxCell id="xGdSi-OeFkMIGdHeow2S-39" style="line;strokeWidth=1;fillColor=none;align=left;verticalAlign=middle;spacingTop=-1;spacingLeft=3;spacingRight=3;rotatable=0;labelPosition=right;points=[];portConstraint=eastwest;strokeColor=inherit;" vertex="1" parent="xGdSi-OeFkMIGdHeow2S-36">
          <mxGeometry y="80.85714285714286" width="295" height="8" as="geometry" />
        </mxCell>
        <mxCell id="xGdSi-OeFkMIGdHeow2S-40" value="+initialize(URL, ResourceBundle): void" style="text;strokeColor=none;fillColor=none;align=left;verticalAlign=top;spacingLeft=4;spacingRight=4;overflow=hidden;rotatable=0;points=[[0,0.5],[1,0.5]];portConstraint=eastwest;" vertex="1" parent="xGdSi-OeFkMIGdHeow2S-36">
          <mxGeometry y="88.85714285714286" width="295" height="27" as="geometry" />
        </mxCell>
        <mxCell id="xGdSi-OeFkMIGdHeow2S-41" value="+update(): void" style="text;strokeColor=none;fillColor=none;align=left;verticalAlign=top;spacingLeft=4;spacingRight=4;overflow=hidden;rotatable=0;points=[[0,0.5],[1,0.5]];portConstraint=eastwest;" vertex="1" parent="xGdSi-OeFkMIGdHeow2S-36">
          <mxGeometry y="115.85714285714286" width="295" height="27" as="geometry" />
        </mxCell>
        <mxCell id="xGdSi-OeFkMIGdHeow2S-42" value="+startHandler(): void" style="text;strokeColor=none;fillColor=none;align=left;verticalAlign=top;spacingLeft=4;spacingRight=4;overflow=hidden;rotatable=0;points=[[0,0.5],[1,0.5]];portConstraint=eastwest;" vertex="1" parent="xGdSi-OeFkMIGdHeow2S-36">
          <mxGeometry y="142.85714285714286" width="295" height="27" as="geometry" />
        </mxCell>
        <mxCell id="xGdSi-OeFkMIGdHeow2S-43" value="+close(): void" style="text;strokeColor=none;fillColor=none;align=left;verticalAlign=top;spacingLeft=4;spacingRight=4;overflow=hidden;rotatable=0;points=[[0,0.5],[1,0.5]];portConstraint=eastwest;" vertex="1" parent="xGdSi-OeFkMIGdHeow2S-36">
          <mxGeometry y="169.85714285714286" width="295" height="27" as="geometry" />
        </mxCell>
        <mxCell id="xGdSi-OeFkMIGdHeow2S-44" value="FloorNodeController" style="swimlane;fontStyle=1;align=center;verticalAlign=top;childLayout=stackLayout;horizontal=1;startSize=26.375;horizontalStack=0;resizeParent=1;resizeParentMax=0;resizeLast=0;collapsible=0;marginBottom=0;" vertex="1" parent="1">
          <mxGeometry x="405" y="1133" width="295" height="216.375" as="geometry" />
        </mxCell>
        <mxCell id="xGdSi-OeFkMIGdHeow2S-45" value="-floorNode: FloorNode" style="text;strokeColor=none;fillColor=none;align=left;verticalAlign=top;spacingLeft=4;spacingRight=4;overflow=hidden;rotatable=0;points=[[0,0.5],[1,0.5]];portConstraint=eastwest;" vertex="1" parent="xGdSi-OeFkMIGdHeow2S-44">
          <mxGeometry y="26.375" width="295" height="26" as="geometry" />
        </mxCell>
        <mxCell id="xGdSi-OeFkMIGdHeow2S-46" style="line;strokeWidth=1;fillColor=none;align=left;verticalAlign=middle;spacingTop=-1;spacingLeft=3;spacingRight=3;rotatable=0;labelPosition=right;points=[];portConstraint=eastwest;strokeColor=inherit;" vertex="1" parent="xGdSi-OeFkMIGdHeow2S-44">
          <mxGeometry y="52.375" width="295" height="8" as="geometry" />
        </mxCell>
        <mxCell id="xGdSi-OeFkMIGdHeow2S-47" value="+initialize(URL, ResourceBundle): void" style="text;strokeColor=none;fillColor=none;align=left;verticalAlign=top;spacingLeft=4;spacingRight=4;overflow=hidden;rotatable=0;points=[[0,0.5],[1,0.5]];portConstraint=eastwest;" vertex="1" parent="xGdSi-OeFkMIGdHeow2S-44">
          <mxGeometry y="60.375" width="295" height="26" as="geometry" />
        </mxCell>
        <mxCell id="xGdSi-OeFkMIGdHeow2S-48" value="+init(int): void" style="text;strokeColor=none;fillColor=none;align=left;verticalAlign=top;spacingLeft=4;spacingRight=4;overflow=hidden;rotatable=0;points=[[0,0.5],[1,0.5]];portConstraint=eastwest;" vertex="1" parent="xGdSi-OeFkMIGdHeow2S-44">
          <mxGeometry y="86.375" width="295" height="26" as="geometry" />
        </mxCell>
        <mxCell id="xGdSi-OeFkMIGdHeow2S-49" value="+update(): void" style="text;strokeColor=none;fillColor=none;align=left;verticalAlign=top;spacingLeft=4;spacingRight=4;overflow=hidden;rotatable=0;points=[[0,0.5],[1,0.5]];portConstraint=eastwest;" vertex="1" parent="xGdSi-OeFkMIGdHeow2S-44">
          <mxGeometry y="112.375" width="295" height="26" as="geometry" />
        </mxCell>
        <mxCell id="xGdSi-OeFkMIGdHeow2S-50" value="-updateLogList(): void" style="text;strokeColor=none;fillColor=none;align=left;verticalAlign=top;spacingLeft=4;spacingRight=4;overflow=hidden;rotatable=0;points=[[0,0.5],[1,0.5]];portConstraint=eastwest;" vertex="1" parent="xGdSi-OeFkMIGdHeow2S-44">
          <mxGeometry y="138.375" width="295" height="26" as="geometry" />
        </mxCell>
        <mxCell id="xGdSi-OeFkMIGdHeow2S-51" value="-updateData(): void" style="text;strokeColor=none;fillColor=none;align=left;verticalAlign=top;spacingLeft=4;spacingRight=4;overflow=hidden;rotatable=0;points=[[0,0.5],[1,0.5]];portConstraint=eastwest;" vertex="1" parent="xGdSi-OeFkMIGdHeow2S-44">
          <mxGeometry y="164.375" width="295" height="26" as="geometry" />
        </mxCell>
        <mxCell id="xGdSi-OeFkMIGdHeow2S-52" value="+close(): void" style="text;strokeColor=none;fillColor=none;align=left;verticalAlign=top;spacingLeft=4;spacingRight=4;overflow=hidden;rotatable=0;points=[[0,0.5],[1,0.5]];portConstraint=eastwest;" vertex="1" parent="xGdSi-OeFkMIGdHeow2S-44">
          <mxGeometry y="190.375" width="295" height="26" as="geometry" />
        </mxCell>
        <mxCell id="xGdSi-OeFkMIGdHeow2S-53" value="FloorSubsystemController" style="swimlane;fontStyle=1;align=center;verticalAlign=top;childLayout=stackLayout;horizontal=1;startSize=26.857142857142858;horizontalStack=0;resizeParent=1;resizeParentMax=0;resizeLast=0;collapsible=0;marginBottom=0;" vertex="1" parent="1">
          <mxGeometry x="498" y="657" width="295" height="196.85714285714286" as="geometry" />
        </mxCell>
        <mxCell id="xGdSi-OeFkMIGdHeow2S-54" value="-floorPages: ArrayList" style="text;strokeColor=none;fillColor=none;align=left;verticalAlign=top;spacingLeft=4;spacingRight=4;overflow=hidden;rotatable=0;points=[[0,0.5],[1,0.5]];portConstraint=eastwest;" vertex="1" parent="xGdSi-OeFkMIGdHeow2S-53">
          <mxGeometry y="26.857142857142858" width="295" height="27" as="geometry" />
        </mxCell>
        <mxCell id="xGdSi-OeFkMIGdHeow2S-55" value="-started: boolean" style="text;strokeColor=none;fillColor=none;align=left;verticalAlign=top;spacingLeft=4;spacingRight=4;overflow=hidden;rotatable=0;points=[[0,0.5],[1,0.5]];portConstraint=eastwest;" vertex="1" parent="xGdSi-OeFkMIGdHeow2S-53">
          <mxGeometry y="53.85714285714286" width="295" height="27" as="geometry" />
        </mxCell>
        <mxCell id="xGdSi-OeFkMIGdHeow2S-56" style="line;strokeWidth=1;fillColor=none;align=left;verticalAlign=middle;spacingTop=-1;spacingLeft=3;spacingRight=3;rotatable=0;labelPosition=right;points=[];portConstraint=eastwest;strokeColor=inherit;" vertex="1" parent="xGdSi-OeFkMIGdHeow2S-53">
          <mxGeometry y="80.85714285714286" width="295" height="8" as="geometry" />
        </mxCell>
        <mxCell id="xGdSi-OeFkMIGdHeow2S-57" value="+initialize(URL, ResourceBundle): void" style="text;strokeColor=none;fillColor=none;align=left;verticalAlign=top;spacingLeft=4;spacingRight=4;overflow=hidden;rotatable=0;points=[[0,0.5],[1,0.5]];portConstraint=eastwest;" vertex="1" parent="xGdSi-OeFkMIGdHeow2S-53">
          <mxGeometry y="88.85714285714286" width="295" height="27" as="geometry" />
        </mxCell>
        <mxCell id="xGdSi-OeFkMIGdHeow2S-58" value="+update(): void" style="text;strokeColor=none;fillColor=none;align=left;verticalAlign=top;spacingLeft=4;spacingRight=4;overflow=hidden;rotatable=0;points=[[0,0.5],[1,0.5]];portConstraint=eastwest;" vertex="1" parent="xGdSi-OeFkMIGdHeow2S-53">
          <mxGeometry y="115.85714285714286" width="295" height="27" as="geometry" />
        </mxCell>
        <mxCell id="xGdSi-OeFkMIGdHeow2S-59" value="+startHandler(): void" style="text;strokeColor=none;fillColor=none;align=left;verticalAlign=top;spacingLeft=4;spacingRight=4;overflow=hidden;rotatable=0;points=[[0,0.5],[1,0.5]];portConstraint=eastwest;" vertex="1" parent="xGdSi-OeFkMIGdHeow2S-53">
          <mxGeometry y="142.85714285714286" width="295" height="27" as="geometry" />
        </mxCell>
        <mxCell id="xGdSi-OeFkMIGdHeow2S-60" value="+close(): void" style="text;strokeColor=none;fillColor=none;align=left;verticalAlign=top;spacingLeft=4;spacingRight=4;overflow=hidden;rotatable=0;points=[[0,0.5],[1,0.5]];portConstraint=eastwest;" vertex="1" parent="xGdSi-OeFkMIGdHeow2S-53">
          <mxGeometry y="169.85714285714286" width="295" height="27" as="geometry" />
        </mxCell>
        <mxCell id="xGdSi-OeFkMIGdHeow2S-61" value="InstructionController" style="swimlane;fontStyle=1;align=center;verticalAlign=top;childLayout=stackLayout;horizontal=1;startSize=27.5;horizontalStack=0;resizeParent=1;resizeParentMax=0;resizeLast=0;collapsible=0;marginBottom=0;" vertex="1" parent="1">
          <mxGeometry x="773" y="1156" width="295" height="175.5" as="geometry" />
        </mxCell>
        <mxCell id="xGdSi-OeFkMIGdHeow2S-62" value="-instruction: Instruction" style="text;strokeColor=none;fillColor=none;align=left;verticalAlign=top;spacingLeft=4;spacingRight=4;overflow=hidden;rotatable=0;points=[[0,0.5],[1,0.5]];portConstraint=eastwest;" vertex="1" parent="xGdSi-OeFkMIGdHeow2S-61">
          <mxGeometry y="27.5" width="295" height="28" as="geometry" />
        </mxCell>
        <mxCell id="xGdSi-OeFkMIGdHeow2S-63" style="line;strokeWidth=1;fillColor=none;align=left;verticalAlign=middle;spacingTop=-1;spacingLeft=3;spacingRight=3;rotatable=0;labelPosition=right;points=[];portConstraint=eastwest;strokeColor=inherit;" vertex="1" parent="xGdSi-OeFkMIGdHeow2S-61">
          <mxGeometry y="55.5" width="295" height="8" as="geometry" />
        </mxCell>
        <mxCell id="xGdSi-OeFkMIGdHeow2S-64" value="+initialize(URL, ResourceBundle): void" style="text;strokeColor=none;fillColor=none;align=left;verticalAlign=top;spacingLeft=4;spacingRight=4;overflow=hidden;rotatable=0;points=[[0,0.5],[1,0.5]];portConstraint=eastwest;" vertex="1" parent="xGdSi-OeFkMIGdHeow2S-61">
          <mxGeometry y="63.5" width="295" height="28" as="geometry" />
        </mxCell>
        <mxCell id="xGdSi-OeFkMIGdHeow2S-65" value="+setInstruction(Instruction): void" style="text;strokeColor=none;fillColor=none;align=left;verticalAlign=top;spacingLeft=4;spacingRight=4;overflow=hidden;rotatable=0;points=[[0,0.5],[1,0.5]];portConstraint=eastwest;" vertex="1" parent="xGdSi-OeFkMIGdHeow2S-61">
          <mxGeometry y="91.5" width="295" height="28" as="geometry" />
        </mxCell>
        <mxCell id="xGdSi-OeFkMIGdHeow2S-66" value="+equals(Instruction): boolean" style="text;strokeColor=none;fillColor=none;align=left;verticalAlign=top;spacingLeft=4;spacingRight=4;overflow=hidden;rotatable=0;points=[[0,0.5],[1,0.5]];portConstraint=eastwest;" vertex="1" parent="xGdSi-OeFkMIGdHeow2S-61">
          <mxGeometry y="119.5" width="295" height="28" as="geometry" />
        </mxCell>
        <mxCell id="xGdSi-OeFkMIGdHeow2S-67" value="+update(): void" style="text;strokeColor=none;fillColor=none;align=left;verticalAlign=top;spacingLeft=4;spacingRight=4;overflow=hidden;rotatable=0;points=[[0,0.5],[1,0.5]];portConstraint=eastwest;" vertex="1" parent="xGdSi-OeFkMIGdHeow2S-61">
          <mxGeometry y="147.5" width="295" height="28" as="geometry" />
        </mxCell>
        <mxCell id="xGdSi-OeFkMIGdHeow2S-68" value="SchedulerController" style="swimlane;fontStyle=1;align=center;verticalAlign=top;childLayout=stackLayout;horizontal=1;startSize=25.454545454545453;horizontalStack=0;resizeParent=1;resizeParentMax=0;resizeLast=0;collapsible=0;marginBottom=0;" vertex="1" parent="1">
          <mxGeometry x="1091" y="611" width="448" height="283.45454545454544" as="geometry" />
        </mxCell>
        <mxCell id="xGdSi-OeFkMIGdHeow2S-69" value="-schedulerSystem: SchedulerSystem" style="text;strokeColor=none;fillColor=none;align=left;verticalAlign=top;spacingLeft=4;spacingRight=4;overflow=hidden;rotatable=0;points=[[0,0.5],[1,0.5]];portConstraint=eastwest;" vertex="1" parent="xGdSi-OeFkMIGdHeow2S-68">
          <mxGeometry y="25.454545454545453" width="448" height="25" as="geometry" />
        </mxCell>
        <mxCell id="xGdSi-OeFkMIGdHeow2S-70" value="-instructions: ArrayList" style="text;strokeColor=none;fillColor=none;align=left;verticalAlign=top;spacingLeft=4;spacingRight=4;overflow=hidden;rotatable=0;points=[[0,0.5],[1,0.5]];portConstraint=eastwest;" vertex="1" parent="xGdSi-OeFkMIGdHeow2S-68">
          <mxGeometry y="50.45454545454545" width="448" height="25" as="geometry" />
        </mxCell>
        <mxCell id="xGdSi-OeFkMIGdHeow2S-71" style="line;strokeWidth=1;fillColor=none;align=left;verticalAlign=middle;spacingTop=-1;spacingLeft=3;spacingRight=3;rotatable=0;labelPosition=right;points=[];portConstraint=eastwest;strokeColor=inherit;" vertex="1" parent="xGdSi-OeFkMIGdHeow2S-68">
          <mxGeometry y="75.45454545454545" width="448" height="8" as="geometry" />
        </mxCell>
        <mxCell id="xGdSi-OeFkMIGdHeow2S-72" value="+initialize(URL, ResourceBundle): void" style="text;strokeColor=none;fillColor=none;align=left;verticalAlign=top;spacingLeft=4;spacingRight=4;overflow=hidden;rotatable=0;points=[[0,0.5],[1,0.5]];portConstraint=eastwest;" vertex="1" parent="xGdSi-OeFkMIGdHeow2S-68">
          <mxGeometry y="83.45454545454545" width="448" height="25" as="geometry" />
        </mxCell>
        <mxCell id="xGdSi-OeFkMIGdHeow2S-73" value="+update(): void" style="text;strokeColor=none;fillColor=none;align=left;verticalAlign=top;spacingLeft=4;spacingRight=4;overflow=hidden;rotatable=0;points=[[0,0.5],[1,0.5]];portConstraint=eastwest;" vertex="1" parent="xGdSi-OeFkMIGdHeow2S-68">
          <mxGeometry y="108.45454545454545" width="448" height="25" as="geometry" />
        </mxCell>
        <mxCell id="xGdSi-OeFkMIGdHeow2S-74" value="-getInstructionController(Instruction): InstructionController" style="text;strokeColor=none;fillColor=none;align=left;verticalAlign=top;spacingLeft=4;spacingRight=4;overflow=hidden;rotatable=0;points=[[0,0.5],[1,0.5]];portConstraint=eastwest;" vertex="1" parent="xGdSi-OeFkMIGdHeow2S-68">
          <mxGeometry y="133.45454545454544" width="448" height="25" as="geometry" />
        </mxCell>
        <mxCell id="xGdSi-OeFkMIGdHeow2S-75" value="-updateMeanTable(long, int, long, int, long): void" style="text;strokeColor=none;fillColor=none;align=left;verticalAlign=top;spacingLeft=4;spacingRight=4;overflow=hidden;rotatable=0;points=[[0,0.5],[1,0.5]];portConstraint=eastwest;" vertex="1" parent="xGdSi-OeFkMIGdHeow2S-68">
          <mxGeometry y="158.45454545454544" width="448" height="25" as="geometry" />
        </mxCell>
        <mxCell id="xGdSi-OeFkMIGdHeow2S-76" value="-getPickupSd(double, double): double" style="text;strokeColor=none;fillColor=none;align=left;verticalAlign=top;spacingLeft=4;spacingRight=4;overflow=hidden;rotatable=0;points=[[0,0.5],[1,0.5]];portConstraint=eastwest;" vertex="1" parent="xGdSi-OeFkMIGdHeow2S-68">
          <mxGeometry y="183.45454545454544" width="448" height="25" as="geometry" />
        </mxCell>
        <mxCell id="xGdSi-OeFkMIGdHeow2S-77" value="-getDropoffSd(double, double): double" style="text;strokeColor=none;fillColor=none;align=left;verticalAlign=top;spacingLeft=4;spacingRight=4;overflow=hidden;rotatable=0;points=[[0,0.5],[1,0.5]];portConstraint=eastwest;" vertex="1" parent="xGdSi-OeFkMIGdHeow2S-68">
          <mxGeometry y="208.45454545454544" width="448" height="25" as="geometry" />
        </mxCell>
        <mxCell id="xGdSi-OeFkMIGdHeow2S-78" value="-getTotalSd(double, double): double" style="text;strokeColor=none;fillColor=none;align=left;verticalAlign=top;spacingLeft=4;spacingRight=4;overflow=hidden;rotatable=0;points=[[0,0.5],[1,0.5]];portConstraint=eastwest;" vertex="1" parent="xGdSi-OeFkMIGdHeow2S-68">
          <mxGeometry y="233.45454545454544" width="448" height="25" as="geometry" />
        </mxCell>
        <mxCell id="xGdSi-OeFkMIGdHeow2S-79" value="+close(): void" style="text;strokeColor=none;fillColor=none;align=left;verticalAlign=top;spacingLeft=4;spacingRight=4;overflow=hidden;rotatable=0;points=[[0,0.5],[1,0.5]];portConstraint=eastwest;" vertex="1" parent="xGdSi-OeFkMIGdHeow2S-68">
          <mxGeometry y="258.45454545454544" width="448" height="25" as="geometry" />
        </mxCell>
        <mxCell id="xGdSi-OeFkMIGdHeow2S-80" value="ElevatorNode" style="swimlane;fontStyle=1;align=center;verticalAlign=top;childLayout=stackLayout;horizontal=1;startSize=23.490909090909092;horizontalStack=0;resizeParent=1;resizeParentMax=0;resizeLast=0;collapsible=0;marginBottom=0;" vertex="1" parent="1">
          <mxGeometry x="20" y="1586" width="326" height="1273.490909090909" as="geometry" />
        </mxCell>
        <mxCell id="xGdSi-OeFkMIGdHeow2S-81" value="-id: int" style="text;strokeColor=none;fillColor=none;align=left;verticalAlign=top;spacingLeft=4;spacingRight=4;overflow=hidden;rotatable=0;points=[[0,0.5],[1,0.5]];portConstraint=eastwest;" vertex="1" parent="xGdSi-OeFkMIGdHeow2S-80">
          <mxGeometry y="23.490909090909092" width="326" height="23" as="geometry" />
        </mxCell>
        <mxCell id="xGdSi-OeFkMIGdHeow2S-82" value="-currentFloor: int" style="text;strokeColor=none;fillColor=none;align=left;verticalAlign=top;spacingLeft=4;spacingRight=4;overflow=hidden;rotatable=0;points=[[0,0.5],[1,0.5]];portConstraint=eastwest;" vertex="1" parent="xGdSi-OeFkMIGdHeow2S-80">
          <mxGeometry y="46.49090909090909" width="326" height="23" as="geometry" />
        </mxCell>
        <mxCell id="xGdSi-OeFkMIGdHeow2S-83" value="-altitude: float" style="text;strokeColor=none;fillColor=none;align=left;verticalAlign=top;spacingLeft=4;spacingRight=4;overflow=hidden;rotatable=0;points=[[0,0.5],[1,0.5]];portConstraint=eastwest;" vertex="1" parent="xGdSi-OeFkMIGdHeow2S-80">
          <mxGeometry y="69.4909090909091" width="326" height="23" as="geometry" />
        </mxCell>
        <mxCell id="xGdSi-OeFkMIGdHeow2S-84" value="+velocity: float" style="text;strokeColor=none;fillColor=none;align=left;verticalAlign=top;spacingLeft=4;spacingRight=4;overflow=hidden;rotatable=0;points=[[0,0.5],[1,0.5]];portConstraint=eastwest;" vertex="1" parent="xGdSi-OeFkMIGdHeow2S-80">
          <mxGeometry y="92.4909090909091" width="326" height="23" as="geometry" />
        </mxCell>
        <mxCell id="xGdSi-OeFkMIGdHeow2S-85" value="-state: ElevatorState" style="text;strokeColor=none;fillColor=none;align=left;verticalAlign=top;spacingLeft=4;spacingRight=4;overflow=hidden;rotatable=0;points=[[0,0.5],[1,0.5]];portConstraint=eastwest;" vertex="1" parent="xGdSi-OeFkMIGdHeow2S-80">
          <mxGeometry y="115.4909090909091" width="326" height="23" as="geometry" />
        </mxCell>
        <mxCell id="xGdSi-OeFkMIGdHeow2S-86" value="-commState: ElevatorCommState" style="text;strokeColor=none;fillColor=none;align=left;verticalAlign=top;spacingLeft=4;spacingRight=4;overflow=hidden;rotatable=0;points=[[0,0.5],[1,0.5]];portConstraint=eastwest;" vertex="1" parent="xGdSi-OeFkMIGdHeow2S-80">
          <mxGeometry y="138.4909090909091" width="326" height="23" as="geometry" />
        </mxCell>
        <mxCell id="xGdSi-OeFkMIGdHeow2S-87" value="+destinations: ArrayList" style="text;strokeColor=none;fillColor=none;align=left;verticalAlign=top;spacingLeft=4;spacingRight=4;overflow=hidden;rotatable=0;points=[[0,0.5],[1,0.5]];portConstraint=eastwest;" vertex="1" parent="xGdSi-OeFkMIGdHeow2S-80">
          <mxGeometry y="161.4909090909091" width="326" height="23" as="geometry" />
        </mxCell>
        <mxCell id="xGdSi-OeFkMIGdHeow2S-88" value="-log: ArrayList" style="text;strokeColor=none;fillColor=none;align=left;verticalAlign=top;spacingLeft=4;spacingRight=4;overflow=hidden;rotatable=0;points=[[0,0.5],[1,0.5]];portConstraint=eastwest;" vertex="1" parent="xGdSi-OeFkMIGdHeow2S-80">
          <mxGeometry y="184.4909090909091" width="326" height="23" as="geometry" />
        </mxCell>
        <mxCell id="xGdSi-OeFkMIGdHeow2S-89" value="-pendingInstructions: ArrayList" style="text;strokeColor=none;fillColor=none;align=left;verticalAlign=top;spacingLeft=4;spacingRight=4;overflow=hidden;rotatable=0;points=[[0,0.5],[1,0.5]];portConstraint=eastwest;" vertex="1" parent="xGdSi-OeFkMIGdHeow2S-80">
          <mxGeometry y="207.4909090909091" width="326" height="23" as="geometry" />
        </mxCell>
        <mxCell id="xGdSi-OeFkMIGdHeow2S-90" value="+sSocket: DatagramSocket" style="text;strokeColor=none;fillColor=none;align=left;verticalAlign=top;spacingLeft=4;spacingRight=4;overflow=hidden;rotatable=0;points=[[0,0.5],[1,0.5]];portConstraint=eastwest;" vertex="1" parent="xGdSi-OeFkMIGdHeow2S-80">
          <mxGeometry y="230.4909090909091" width="326" height="23" as="geometry" />
        </mxCell>
        <mxCell id="xGdSi-OeFkMIGdHeow2S-91" value="+rSocket: DatagramSocket" style="text;strokeColor=none;fillColor=none;align=left;verticalAlign=top;spacingLeft=4;spacingRight=4;overflow=hidden;rotatable=0;points=[[0,0.5],[1,0.5]];portConstraint=eastwest;" vertex="1" parent="xGdSi-OeFkMIGdHeow2S-80">
          <mxGeometry y="253.4909090909091" width="326" height="23" as="geometry" />
        </mxCell>
        <mxCell id="xGdSi-OeFkMIGdHeow2S-92" value="+running: boolean" style="text;strokeColor=none;fillColor=none;align=left;verticalAlign=top;spacingLeft=4;spacingRight=4;overflow=hidden;rotatable=0;points=[[0,0.5],[1,0.5]];portConstraint=eastwest;" vertex="1" parent="xGdSi-OeFkMIGdHeow2S-80">
          <mxGeometry y="276.4909090909091" width="326" height="23" as="geometry" />
        </mxCell>
        <mxCell id="xGdSi-OeFkMIGdHeow2S-93" value="-controller: Updatable" style="text;strokeColor=none;fillColor=none;align=left;verticalAlign=top;spacingLeft=4;spacingRight=4;overflow=hidden;rotatable=0;points=[[0,0.5],[1,0.5]];portConstraint=eastwest;" vertex="1" parent="xGdSi-OeFkMIGdHeow2S-80">
          <mxGeometry y="299.4909090909091" width="326" height="23" as="geometry" />
        </mxCell>
        <mxCell id="xGdSi-OeFkMIGdHeow2S-94" value="-registered: boolean" style="text;strokeColor=none;fillColor=none;align=left;verticalAlign=top;spacingLeft=4;spacingRight=4;overflow=hidden;rotatable=0;points=[[0,0.5],[1,0.5]];portConstraint=eastwest;" vertex="1" parent="xGdSi-OeFkMIGdHeow2S-80">
          <mxGeometry y="322.4909090909091" width="326" height="23" as="geometry" />
        </mxCell>
        <mxCell id="xGdSi-OeFkMIGdHeow2S-95" value="-doorStuck: boolean" style="text;strokeColor=none;fillColor=none;align=left;verticalAlign=top;spacingLeft=4;spacingRight=4;overflow=hidden;rotatable=0;points=[[0,0.5],[1,0.5]];portConstraint=eastwest;" vertex="1" parent="xGdSi-OeFkMIGdHeow2S-80">
          <mxGeometry y="345.4909090909091" width="326" height="23" as="geometry" />
        </mxCell>
        <mxCell id="xGdSi-OeFkMIGdHeow2S-96" value="-stuck: boolean" style="text;strokeColor=none;fillColor=none;align=left;verticalAlign=top;spacingLeft=4;spacingRight=4;overflow=hidden;rotatable=0;points=[[0,0.5],[1,0.5]];portConstraint=eastwest;" vertex="1" parent="xGdSi-OeFkMIGdHeow2S-80">
          <mxGeometry y="368.4909090909091" width="326" height="23" as="geometry" />
        </mxCell>
        <mxCell id="xGdSi-OeFkMIGdHeow2S-97" value="-pickedupInstructions: ArrayList" style="text;strokeColor=none;fillColor=none;align=left;verticalAlign=top;spacingLeft=4;spacingRight=4;overflow=hidden;rotatable=0;points=[[0,0.5],[1,0.5]];portConstraint=eastwest;" vertex="1" parent="xGdSi-OeFkMIGdHeow2S-80">
          <mxGeometry y="391.4909090909091" width="326" height="23" as="geometry" />
        </mxCell>
        <mxCell id="xGdSi-OeFkMIGdHeow2S-98" style="line;strokeWidth=1;fillColor=none;align=left;verticalAlign=middle;spacingTop=-1;spacingLeft=3;spacingRight=3;rotatable=0;labelPosition=right;points=[];portConstraint=eastwest;strokeColor=inherit;" vertex="1" parent="xGdSi-OeFkMIGdHeow2S-80">
          <mxGeometry y="414.4909090909091" width="326" height="8" as="geometry" />
        </mxCell>
        <mxCell id="xGdSi-OeFkMIGdHeow2S-99" value="+ElevatorNode()" style="text;strokeColor=none;fillColor=none;align=left;verticalAlign=top;spacingLeft=4;spacingRight=4;overflow=hidden;rotatable=0;points=[[0,0.5],[1,0.5]];portConstraint=eastwest;" vertex="1" parent="xGdSi-OeFkMIGdHeow2S-80">
          <mxGeometry y="422.4909090909091" width="326" height="23" as="geometry" />
        </mxCell>
        <mxCell id="xGdSi-OeFkMIGdHeow2S-100" value="+ElevatorNode(Updatable)" style="text;strokeColor=none;fillColor=none;align=left;verticalAlign=top;spacingLeft=4;spacingRight=4;overflow=hidden;rotatable=0;points=[[0,0.5],[1,0.5]];portConstraint=eastwest;" vertex="1" parent="xGdSi-OeFkMIGdHeow2S-80">
          <mxGeometry y="445.4909090909091" width="326" height="23" as="geometry" />
        </mxCell>
        <mxCell id="xGdSi-OeFkMIGdHeow2S-101" value="+close(): void" style="text;strokeColor=none;fillColor=none;align=left;verticalAlign=top;spacingLeft=4;spacingRight=4;overflow=hidden;rotatable=0;points=[[0,0.5],[1,0.5]];portConstraint=eastwest;" vertex="1" parent="xGdSi-OeFkMIGdHeow2S-80">
          <mxGeometry y="468.4909090909091" width="326" height="23" as="geometry" />
        </mxCell>
        <mxCell id="xGdSi-OeFkMIGdHeow2S-102" value="+isRegistered(): boolean" style="text;strokeColor=none;fillColor=none;align=left;verticalAlign=top;spacingLeft=4;spacingRight=4;overflow=hidden;rotatable=0;points=[[0,0.5],[1,0.5]];portConstraint=eastwest;" vertex="1" parent="xGdSi-OeFkMIGdHeow2S-80">
          <mxGeometry y="491.4909090909091" width="326" height="23" as="geometry" />
        </mxCell>
        <mxCell id="xGdSi-OeFkMIGdHeow2S-103" value="-register(): boolean" style="text;strokeColor=none;fillColor=none;align=left;verticalAlign=top;spacingLeft=4;spacingRight=4;overflow=hidden;rotatable=0;points=[[0,0.5],[1,0.5]];portConstraint=eastwest;" vertex="1" parent="xGdSi-OeFkMIGdHeow2S-80">
          <mxGeometry y="514.4909090909091" width="326" height="23" as="geometry" />
        </mxCell>
        <mxCell id="xGdSi-OeFkMIGdHeow2S-104" value="+updateController(): void" style="text;strokeColor=none;fillColor=none;align=left;verticalAlign=top;spacingLeft=4;spacingRight=4;overflow=hidden;rotatable=0;points=[[0,0.5],[1,0.5]];portConstraint=eastwest;" vertex="1" parent="xGdSi-OeFkMIGdHeow2S-80">
          <mxGeometry y="537.4909090909091" width="326" height="23" as="geometry" />
        </mxCell>
        <mxCell id="xGdSi-OeFkMIGdHeow2S-105" value="-awaitResponse(): String" style="text;strokeColor=none;fillColor=none;align=left;verticalAlign=top;spacingLeft=4;spacingRight=4;overflow=hidden;rotatable=0;points=[[0,0.5],[1,0.5]];portConstraint=eastwest;" vertex="1" parent="xGdSi-OeFkMIGdHeow2S-80">
          <mxGeometry y="560.4909090909091" width="326" height="23" as="geometry" />
        </mxCell>
        <mxCell id="xGdSi-OeFkMIGdHeow2S-106" value="+getElevatorId(): int" style="text;strokeColor=none;fillColor=none;align=left;verticalAlign=top;spacingLeft=4;spacingRight=4;overflow=hidden;rotatable=0;points=[[0,0.5],[1,0.5]];portConstraint=eastwest;" vertex="1" parent="xGdSi-OeFkMIGdHeow2S-80">
          <mxGeometry y="583.4909090909091" width="326" height="23" as="geometry" />
        </mxCell>
        <mxCell id="xGdSi-OeFkMIGdHeow2S-107" value="+getCurrentFloor(): int" style="text;strokeColor=none;fillColor=none;align=left;verticalAlign=top;spacingLeft=4;spacingRight=4;overflow=hidden;rotatable=0;points=[[0,0.5],[1,0.5]];portConstraint=eastwest;" vertex="1" parent="xGdSi-OeFkMIGdHeow2S-80">
          <mxGeometry y="606.4909090909091" width="326" height="23" as="geometry" />
        </mxCell>
        <mxCell id="xGdSi-OeFkMIGdHeow2S-108" value="+getAltitude(): float" style="text;strokeColor=none;fillColor=none;align=left;verticalAlign=top;spacingLeft=4;spacingRight=4;overflow=hidden;rotatable=0;points=[[0,0.5],[1,0.5]];portConstraint=eastwest;" vertex="1" parent="xGdSi-OeFkMIGdHeow2S-80">
          <mxGeometry y="629.4909090909091" width="326" height="23" as="geometry" />
        </mxCell>
        <mxCell id="xGdSi-OeFkMIGdHeow2S-109" value="+getVelocity(): float" style="text;strokeColor=none;fillColor=none;align=left;verticalAlign=top;spacingLeft=4;spacingRight=4;overflow=hidden;rotatable=0;points=[[0,0.5],[1,0.5]];portConstraint=eastwest;" vertex="1" parent="xGdSi-OeFkMIGdHeow2S-80">
          <mxGeometry y="652.4909090909091" width="326" height="23" as="geometry" />
        </mxCell>
        <mxCell id="xGdSi-OeFkMIGdHeow2S-110" value="+isDoorStuck(): boolean" style="text;strokeColor=none;fillColor=none;align=left;verticalAlign=top;spacingLeft=4;spacingRight=4;overflow=hidden;rotatable=0;points=[[0,0.5],[1,0.5]];portConstraint=eastwest;" vertex="1" parent="xGdSi-OeFkMIGdHeow2S-80">
          <mxGeometry y="675.4909090909091" width="326" height="23" as="geometry" />
        </mxCell>
        <mxCell id="xGdSi-OeFkMIGdHeow2S-111" value="+isStuck(): boolean" style="text;strokeColor=none;fillColor=none;align=left;verticalAlign=top;spacingLeft=4;spacingRight=4;overflow=hidden;rotatable=0;points=[[0,0.5],[1,0.5]];portConstraint=eastwest;" vertex="1" parent="xGdSi-OeFkMIGdHeow2S-80">
          <mxGeometry y="698.4909090909091" width="326" height="23" as="geometry" />
        </mxCell>
        <mxCell id="xGdSi-OeFkMIGdHeow2S-112" value="+getLog(): ArrayList" style="text;strokeColor=none;fillColor=none;align=left;verticalAlign=top;spacingLeft=4;spacingRight=4;overflow=hidden;rotatable=0;points=[[0,0.5],[1,0.5]];portConstraint=eastwest;" vertex="1" parent="xGdSi-OeFkMIGdHeow2S-80">
          <mxGeometry y="721.4909090909091" width="326" height="23" as="geometry" />
        </mxCell>
        <mxCell id="xGdSi-OeFkMIGdHeow2S-113" value="+getDestinations(): ArrayList" style="text;strokeColor=none;fillColor=none;align=left;verticalAlign=top;spacingLeft=4;spacingRight=4;overflow=hidden;rotatable=0;points=[[0,0.5],[1,0.5]];portConstraint=eastwest;" vertex="1" parent="xGdSi-OeFkMIGdHeow2S-80">
          <mxGeometry y="744.4909090909091" width="326" height="23" as="geometry" />
        </mxCell>
        <mxCell id="xGdSi-OeFkMIGdHeow2S-114" value="+getElevatorState(): ElevatorState" style="text;strokeColor=none;fillColor=none;align=left;verticalAlign=top;spacingLeft=4;spacingRight=4;overflow=hidden;rotatable=0;points=[[0,0.5],[1,0.5]];portConstraint=eastwest;" vertex="1" parent="xGdSi-OeFkMIGdHeow2S-80">
          <mxGeometry y="767.4909090909091" width="326" height="23" as="geometry" />
        </mxCell>
        <mxCell id="xGdSi-OeFkMIGdHeow2S-115" value="+getCommState(): ElevatorCommState" style="text;strokeColor=none;fillColor=none;align=left;verticalAlign=top;spacingLeft=4;spacingRight=4;overflow=hidden;rotatable=0;points=[[0,0.5],[1,0.5]];portConstraint=eastwest;" vertex="1" parent="xGdSi-OeFkMIGdHeow2S-80">
          <mxGeometry y="790.4909090909091" width="326" height="23" as="geometry" />
        </mxCell>
        <mxCell id="xGdSi-OeFkMIGdHeow2S-116" value="+getPickupIndex(Instruction): int" style="text;strokeColor=none;fillColor=none;align=left;verticalAlign=top;spacingLeft=4;spacingRight=4;overflow=hidden;rotatable=0;points=[[0,0.5],[1,0.5]];portConstraint=eastwest;" vertex="1" parent="xGdSi-OeFkMIGdHeow2S-80">
          <mxGeometry y="813.4909090909091" width="326" height="23" as="geometry" />
        </mxCell>
        <mxCell id="xGdSi-OeFkMIGdHeow2S-117" value="+getDirection(): Direction" style="text;strokeColor=none;fillColor=none;align=left;verticalAlign=top;spacingLeft=4;spacingRight=4;overflow=hidden;rotatable=0;points=[[0,0.5],[1,0.5]];portConstraint=eastwest;" vertex="1" parent="xGdSi-OeFkMIGdHeow2S-80">
          <mxGeometry y="836.4909090909091" width="326" height="23" as="geometry" />
        </mxCell>
        <mxCell id="xGdSi-OeFkMIGdHeow2S-118" value="+getCapacity(): int" style="text;strokeColor=none;fillColor=none;align=left;verticalAlign=top;spacingLeft=4;spacingRight=4;overflow=hidden;rotatable=0;points=[[0,0.5],[1,0.5]];portConstraint=eastwest;" vertex="1" parent="xGdSi-OeFkMIGdHeow2S-80">
          <mxGeometry y="859.4909090909091" width="326" height="23" as="geometry" />
        </mxCell>
        <mxCell id="xGdSi-OeFkMIGdHeow2S-119" value="+destinationsEmpty(): boolean" style="text;strokeColor=none;fillColor=none;align=left;verticalAlign=top;spacingLeft=4;spacingRight=4;overflow=hidden;rotatable=0;points=[[0,0.5],[1,0.5]];portConstraint=eastwest;" vertex="1" parent="xGdSi-OeFkMIGdHeow2S-80">
          <mxGeometry y="882.4909090909091" width="326" height="23" as="geometry" />
        </mxCell>
        <mxCell id="xGdSi-OeFkMIGdHeow2S-120" value="+addPickup(Instruction): void" style="text;strokeColor=none;fillColor=none;align=left;verticalAlign=top;spacingLeft=4;spacingRight=4;overflow=hidden;rotatable=0;points=[[0,0.5],[1,0.5]];portConstraint=eastwest;" vertex="1" parent="xGdSi-OeFkMIGdHeow2S-80">
          <mxGeometry y="905.4909090909091" width="326" height="23" as="geometry" />
        </mxCell>
        <mxCell id="xGdSi-OeFkMIGdHeow2S-121" value="+setState(ElevatorState): void" style="text;strokeColor=none;fillColor=none;align=left;verticalAlign=top;spacingLeft=4;spacingRight=4;overflow=hidden;rotatable=0;points=[[0,0.5],[1,0.5]];portConstraint=eastwest;" vertex="1" parent="xGdSi-OeFkMIGdHeow2S-80">
          <mxGeometry y="928.4909090909091" width="326" height="23" as="geometry" />
        </mxCell>
        <mxCell id="xGdSi-OeFkMIGdHeow2S-122" value="+setCommState(ElevatorCommState): void" style="text;strokeColor=none;fillColor=none;align=left;verticalAlign=top;spacingLeft=4;spacingRight=4;overflow=hidden;rotatable=0;points=[[0,0.5],[1,0.5]];portConstraint=eastwest;" vertex="1" parent="xGdSi-OeFkMIGdHeow2S-80">
          <mxGeometry y="951.4909090909091" width="326" height="23" as="geometry" />
        </mxCell>
        <mxCell id="xGdSi-OeFkMIGdHeow2S-123" value="+updateAltitude(float): void" style="text;strokeColor=none;fillColor=none;align=left;verticalAlign=top;spacingLeft=4;spacingRight=4;overflow=hidden;rotatable=0;points=[[0,0.5],[1,0.5]];portConstraint=eastwest;" vertex="1" parent="xGdSi-OeFkMIGdHeow2S-80">
          <mxGeometry y="974.4909090909091" width="326" height="23" as="geometry" />
        </mxCell>
        <mxCell id="xGdSi-OeFkMIGdHeow2S-124" value="+addEvent(Event): void" style="text;strokeColor=none;fillColor=none;align=left;verticalAlign=top;spacingLeft=4;spacingRight=4;overflow=hidden;rotatable=0;points=[[0,0.5],[1,0.5]];portConstraint=eastwest;" vertex="1" parent="xGdSi-OeFkMIGdHeow2S-80">
          <mxGeometry y="997.4909090909091" width="326" height="23" as="geometry" />
        </mxCell>
        <mxCell id="xGdSi-OeFkMIGdHeow2S-125" value="+injectStuck(): void" style="text;strokeColor=none;fillColor=none;align=left;verticalAlign=top;spacingLeft=4;spacingRight=4;overflow=hidden;rotatable=0;points=[[0,0.5],[1,0.5]];portConstraint=eastwest;" vertex="1" parent="xGdSi-OeFkMIGdHeow2S-80">
          <mxGeometry y="1020.4909090909091" width="326" height="23" as="geometry" />
        </mxCell>
        <mxCell id="xGdSi-OeFkMIGdHeow2S-126" value="+injectDoorStuck(): void" style="text;strokeColor=none;fillColor=none;align=left;verticalAlign=top;spacingLeft=4;spacingRight=4;overflow=hidden;rotatable=0;points=[[0,0.5],[1,0.5]];portConstraint=eastwest;" vertex="1" parent="xGdSi-OeFkMIGdHeow2S-80">
          <mxGeometry y="1043.490909090909" width="326" height="23" as="geometry" />
        </mxCell>
        <mxCell id="xGdSi-OeFkMIGdHeow2S-127" value="+resetDoorStuck(): void" style="text;strokeColor=none;fillColor=none;align=left;verticalAlign=top;spacingLeft=4;spacingRight=4;overflow=hidden;rotatable=0;points=[[0,0.5],[1,0.5]];portConstraint=eastwest;" vertex="1" parent="xGdSi-OeFkMIGdHeow2S-80">
          <mxGeometry y="1066.490909090909" width="326" height="23" as="geometry" />
        </mxCell>
        <mxCell id="xGdSi-OeFkMIGdHeow2S-128" value="+resetStuck(): void" style="text;strokeColor=none;fillColor=none;align=left;verticalAlign=top;spacingLeft=4;spacingRight=4;overflow=hidden;rotatable=0;points=[[0,0.5],[1,0.5]];portConstraint=eastwest;" vertex="1" parent="xGdSi-OeFkMIGdHeow2S-80">
          <mxGeometry y="1089.490909090909" width="326" height="23" as="geometry" />
        </mxCell>
        <mxCell id="xGdSi-OeFkMIGdHeow2S-129" value="+sendEvent(Event): void" style="text;strokeColor=none;fillColor=none;align=left;verticalAlign=top;spacingLeft=4;spacingRight=4;overflow=hidden;rotatable=0;points=[[0,0.5],[1,0.5]];portConstraint=eastwest;" vertex="1" parent="xGdSi-OeFkMIGdHeow2S-80">
          <mxGeometry y="1112.490909090909" width="326" height="23" as="geometry" />
        </mxCell>
        <mxCell id="xGdSi-OeFkMIGdHeow2S-130" value="+traverse(Direction): void" style="text;strokeColor=none;fillColor=none;align=left;verticalAlign=top;spacingLeft=4;spacingRight=4;overflow=hidden;rotatable=0;points=[[0,0.5],[1,0.5]];portConstraint=eastwest;" vertex="1" parent="xGdSi-OeFkMIGdHeow2S-80">
          <mxGeometry y="1135.490909090909" width="326" height="23" as="geometry" />
        </mxCell>
        <mxCell id="xGdSi-OeFkMIGdHeow2S-131" value="+getNextDestination(): Integer" style="text;strokeColor=none;fillColor=none;align=left;verticalAlign=top;spacingLeft=4;spacingRight=4;overflow=hidden;rotatable=0;points=[[0,0.5],[1,0.5]];portConstraint=eastwest;" vertex="1" parent="xGdSi-OeFkMIGdHeow2S-80">
          <mxGeometry y="1158.490909090909" width="326" height="23" as="geometry" />
        </mxCell>
        <mxCell id="xGdSi-OeFkMIGdHeow2S-132" value="+clearDestination(): void" style="text;strokeColor=none;fillColor=none;align=left;verticalAlign=top;spacingLeft=4;spacingRight=4;overflow=hidden;rotatable=0;points=[[0,0.5],[1,0.5]];portConstraint=eastwest;" vertex="1" parent="xGdSi-OeFkMIGdHeow2S-80">
          <mxGeometry y="1181.490909090909" width="326" height="23" as="geometry" />
        </mxCell>
        <mxCell id="xGdSi-OeFkMIGdHeow2S-133" value="+unloadPassengers(): void" style="text;strokeColor=none;fillColor=none;align=left;verticalAlign=top;spacingLeft=4;spacingRight=4;overflow=hidden;rotatable=0;points=[[0,0.5],[1,0.5]];portConstraint=eastwest;" vertex="1" parent="xGdSi-OeFkMIGdHeow2S-80">
          <mxGeometry y="1204.490909090909" width="326" height="23" as="geometry" />
        </mxCell>
        <mxCell id="xGdSi-OeFkMIGdHeow2S-134" value="+loadPassengers(): void" style="text;strokeColor=none;fillColor=none;align=left;verticalAlign=top;spacingLeft=4;spacingRight=4;overflow=hidden;rotatable=0;points=[[0,0.5],[1,0.5]];portConstraint=eastwest;" vertex="1" parent="xGdSi-OeFkMIGdHeow2S-80">
          <mxGeometry y="1227.490909090909" width="326" height="23" as="geometry" />
        </mxCell>
        <mxCell id="xGdSi-OeFkMIGdHeow2S-135" value="+run(): void" style="text;strokeColor=none;fillColor=none;align=left;verticalAlign=top;spacingLeft=4;spacingRight=4;overflow=hidden;rotatable=0;points=[[0,0.5],[1,0.5]];portConstraint=eastwest;" vertex="1" parent="xGdSi-OeFkMIGdHeow2S-80">
          <mxGeometry y="1250.490909090909" width="326" height="23" as="geometry" />
        </mxCell>
        <mxCell id="xGdSi-OeFkMIGdHeow2S-136" value="FloorNode" style="swimlane;fontStyle=1;align=center;verticalAlign=top;childLayout=stackLayout;horizontal=1;startSize=24.08;horizontalStack=0;resizeParent=1;resizeParentMax=0;resizeLast=0;collapsible=0;marginBottom=0;" vertex="1" parent="1">
          <mxGeometry x="396" y="1931" width="313" height="608.0799999999999" as="geometry" />
        </mxCell>
        <mxCell id="xGdSi-OeFkMIGdHeow2S-137" value="-sSocket: DatagramSocket" style="text;strokeColor=none;fillColor=none;align=left;verticalAlign=top;spacingLeft=4;spacingRight=4;overflow=hidden;rotatable=0;points=[[0,0.5],[1,0.5]];portConstraint=eastwest;" vertex="1" parent="xGdSi-OeFkMIGdHeow2S-136">
          <mxGeometry y="24.08" width="313" height="24" as="geometry" />
        </mxCell>
        <mxCell id="xGdSi-OeFkMIGdHeow2S-138" value="-rSocket: DatagramSocket" style="text;strokeColor=none;fillColor=none;align=left;verticalAlign=top;spacingLeft=4;spacingRight=4;overflow=hidden;rotatable=0;points=[[0,0.5],[1,0.5]];portConstraint=eastwest;" vertex="1" parent="xGdSi-OeFkMIGdHeow2S-136">
          <mxGeometry y="48.08" width="313" height="24" as="geometry" />
        </mxCell>
        <mxCell id="xGdSi-OeFkMIGdHeow2S-139" value="-filename: String" style="text;strokeColor=none;fillColor=none;align=left;verticalAlign=top;spacingLeft=4;spacingRight=4;overflow=hidden;rotatable=0;points=[[0,0.5],[1,0.5]];portConstraint=eastwest;" vertex="1" parent="xGdSi-OeFkMIGdHeow2S-136">
          <mxGeometry y="72.08" width="313" height="24" as="geometry" />
        </mxCell>
        <mxCell id="xGdSi-OeFkMIGdHeow2S-140" value="-floor: int" style="text;strokeColor=none;fillColor=none;align=left;verticalAlign=top;spacingLeft=4;spacingRight=4;overflow=hidden;rotatable=0;points=[[0,0.5],[1,0.5]];portConstraint=eastwest;" vertex="1" parent="xGdSi-OeFkMIGdHeow2S-136">
          <mxGeometry y="96.08" width="313" height="24" as="geometry" />
        </mxCell>
        <mxCell id="xGdSi-OeFkMIGdHeow2S-141" value="-log: ArrayList" style="text;strokeColor=none;fillColor=none;align=left;verticalAlign=top;spacingLeft=4;spacingRight=4;overflow=hidden;rotatable=0;points=[[0,0.5],[1,0.5]];portConstraint=eastwest;" vertex="1" parent="xGdSi-OeFkMIGdHeow2S-136">
          <mxGeometry y="120.08" width="313" height="24" as="geometry" />
        </mxCell>
        <mxCell id="xGdSi-OeFkMIGdHeow2S-142" value="-running: boolean" style="text;strokeColor=none;fillColor=none;align=left;verticalAlign=top;spacingLeft=4;spacingRight=4;overflow=hidden;rotatable=0;points=[[0,0.5],[1,0.5]];portConstraint=eastwest;" vertex="1" parent="xGdSi-OeFkMIGdHeow2S-136">
          <mxGeometry y="144.07999999999998" width="313" height="24" as="geometry" />
        </mxCell>
        <mxCell id="xGdSi-OeFkMIGdHeow2S-143" value="-registered: boolean" style="text;strokeColor=none;fillColor=none;align=left;verticalAlign=top;spacingLeft=4;spacingRight=4;overflow=hidden;rotatable=0;points=[[0,0.5],[1,0.5]];portConstraint=eastwest;" vertex="1" parent="xGdSi-OeFkMIGdHeow2S-136">
          <mxGeometry y="168.07999999999998" width="313" height="24" as="geometry" />
        </mxCell>
        <mxCell id="xGdSi-OeFkMIGdHeow2S-144" value="-controller: Updatable" style="text;strokeColor=none;fillColor=none;align=left;verticalAlign=top;spacingLeft=4;spacingRight=4;overflow=hidden;rotatable=0;points=[[0,0.5],[1,0.5]];portConstraint=eastwest;" vertex="1" parent="xGdSi-OeFkMIGdHeow2S-136">
          <mxGeometry y="192.07999999999998" width="313" height="24" as="geometry" />
        </mxCell>
        <mxCell id="xGdSi-OeFkMIGdHeow2S-145" style="line;strokeWidth=1;fillColor=none;align=left;verticalAlign=middle;spacingTop=-1;spacingLeft=3;spacingRight=3;rotatable=0;labelPosition=right;points=[];portConstraint=eastwest;strokeColor=inherit;" vertex="1" parent="xGdSi-OeFkMIGdHeow2S-136">
          <mxGeometry y="216.07999999999998" width="313" height="8" as="geometry" />
        </mxCell>
        <mxCell id="xGdSi-OeFkMIGdHeow2S-146" value="+FloorNode(Updatable, int)" style="text;strokeColor=none;fillColor=none;align=left;verticalAlign=top;spacingLeft=4;spacingRight=4;overflow=hidden;rotatable=0;points=[[0,0.5],[1,0.5]];portConstraint=eastwest;" vertex="1" parent="xGdSi-OeFkMIGdHeow2S-136">
          <mxGeometry y="224.07999999999998" width="313" height="24" as="geometry" />
        </mxCell>
        <mxCell id="xGdSi-OeFkMIGdHeow2S-147" value="+FloorNode(int, String)" style="text;strokeColor=none;fillColor=none;align=left;verticalAlign=top;spacingLeft=4;spacingRight=4;overflow=hidden;rotatable=0;points=[[0,0.5],[1,0.5]];portConstraint=eastwest;" vertex="1" parent="xGdSi-OeFkMIGdHeow2S-136">
          <mxGeometry y="248.07999999999998" width="313" height="24" as="geometry" />
        </mxCell>
        <mxCell id="xGdSi-OeFkMIGdHeow2S-148" value="+close(): void" style="text;strokeColor=none;fillColor=none;align=left;verticalAlign=top;spacingLeft=4;spacingRight=4;overflow=hidden;rotatable=0;points=[[0,0.5],[1,0.5]];portConstraint=eastwest;" vertex="1" parent="xGdSi-OeFkMIGdHeow2S-136">
          <mxGeometry y="272.08" width="313" height="24" as="geometry" />
        </mxCell>
        <mxCell id="xGdSi-OeFkMIGdHeow2S-149" value="+getFloor(): int" style="text;strokeColor=none;fillColor=none;align=left;verticalAlign=top;spacingLeft=4;spacingRight=4;overflow=hidden;rotatable=0;points=[[0,0.5],[1,0.5]];portConstraint=eastwest;" vertex="1" parent="xGdSi-OeFkMIGdHeow2S-136">
          <mxGeometry y="296.08" width="313" height="24" as="geometry" />
        </mxCell>
        <mxCell id="xGdSi-OeFkMIGdHeow2S-150" value="+isRegistered(): boolean" style="text;strokeColor=none;fillColor=none;align=left;verticalAlign=top;spacingLeft=4;spacingRight=4;overflow=hidden;rotatable=0;points=[[0,0.5],[1,0.5]];portConstraint=eastwest;" vertex="1" parent="xGdSi-OeFkMIGdHeow2S-136">
          <mxGeometry y="320.08" width="313" height="24" as="geometry" />
        </mxCell>
        <mxCell id="xGdSi-OeFkMIGdHeow2S-151" value="+getRSocketPort(): int" style="text;strokeColor=none;fillColor=none;align=left;verticalAlign=top;spacingLeft=4;spacingRight=4;overflow=hidden;rotatable=0;points=[[0,0.5],[1,0.5]];portConstraint=eastwest;" vertex="1" parent="xGdSi-OeFkMIGdHeow2S-136">
          <mxGeometry y="344.08" width="313" height="24" as="geometry" />
        </mxCell>
        <mxCell id="xGdSi-OeFkMIGdHeow2S-152" value="+getSSocketPort(): int" style="text;strokeColor=none;fillColor=none;align=left;verticalAlign=top;spacingLeft=4;spacingRight=4;overflow=hidden;rotatable=0;points=[[0,0.5],[1,0.5]];portConstraint=eastwest;" vertex="1" parent="xGdSi-OeFkMIGdHeow2S-136">
          <mxGeometry y="368.08" width="313" height="24" as="geometry" />
        </mxCell>
        <mxCell id="xGdSi-OeFkMIGdHeow2S-153" value="+getLog(): ArrayList" style="text;strokeColor=none;fillColor=none;align=left;verticalAlign=top;spacingLeft=4;spacingRight=4;overflow=hidden;rotatable=0;points=[[0,0.5],[1,0.5]];portConstraint=eastwest;" vertex="1" parent="xGdSi-OeFkMIGdHeow2S-136">
          <mxGeometry y="392.08" width="313" height="24" as="geometry" />
        </mxCell>
        <mxCell id="xGdSi-OeFkMIGdHeow2S-154" value="+setFilename(String): void" style="text;strokeColor=none;fillColor=none;align=left;verticalAlign=top;spacingLeft=4;spacingRight=4;overflow=hidden;rotatable=0;points=[[0,0.5],[1,0.5]];portConstraint=eastwest;" vertex="1" parent="xGdSi-OeFkMIGdHeow2S-136">
          <mxGeometry y="416.08" width="313" height="24" as="geometry" />
        </mxCell>
        <mxCell id="xGdSi-OeFkMIGdHeow2S-155" value="-parseData(): void" style="text;strokeColor=none;fillColor=none;align=left;verticalAlign=top;spacingLeft=4;spacingRight=4;overflow=hidden;rotatable=0;points=[[0,0.5],[1,0.5]];portConstraint=eastwest;" vertex="1" parent="xGdSi-OeFkMIGdHeow2S-136">
          <mxGeometry y="440.08" width="313" height="24" as="geometry" />
        </mxCell>
        <mxCell id="xGdSi-OeFkMIGdHeow2S-156" value="-registerPort(): boolean" style="text;strokeColor=none;fillColor=none;align=left;verticalAlign=top;spacingLeft=4;spacingRight=4;overflow=hidden;rotatable=0;points=[[0,0.5],[1,0.5]];portConstraint=eastwest;" vertex="1" parent="xGdSi-OeFkMIGdHeow2S-136">
          <mxGeometry y="464.08" width="313" height="24" as="geometry" />
        </mxCell>
        <mxCell id="xGdSi-OeFkMIGdHeow2S-157" value="-awaitConfirmation(): String" style="text;strokeColor=none;fillColor=none;align=left;verticalAlign=top;spacingLeft=4;spacingRight=4;overflow=hidden;rotatable=0;points=[[0,0.5],[1,0.5]];portConstraint=eastwest;" vertex="1" parent="xGdSi-OeFkMIGdHeow2S-136">
          <mxGeometry y="488.08" width="313" height="24" as="geometry" />
        </mxCell>
        <mxCell id="xGdSi-OeFkMIGdHeow2S-158" value="+updateController(): void" style="text;strokeColor=none;fillColor=none;align=left;verticalAlign=top;spacingLeft=4;spacingRight=4;overflow=hidden;rotatable=0;points=[[0,0.5],[1,0.5]];portConstraint=eastwest;" vertex="1" parent="xGdSi-OeFkMIGdHeow2S-136">
          <mxGeometry y="512.0799999999999" width="313" height="24" as="geometry" />
        </mxCell>
        <mxCell id="xGdSi-OeFkMIGdHeow2S-159" value="-sendInstructionPacket(Instruction): void" style="text;strokeColor=none;fillColor=none;align=left;verticalAlign=top;spacingLeft=4;spacingRight=4;overflow=hidden;rotatable=0;points=[[0,0.5],[1,0.5]];portConstraint=eastwest;" vertex="1" parent="xGdSi-OeFkMIGdHeow2S-136">
          <mxGeometry y="536.0799999999999" width="313" height="24" as="geometry" />
        </mxCell>
        <mxCell id="xGdSi-OeFkMIGdHeow2S-160" value="+addEvent(Event): void" style="text;strokeColor=none;fillColor=none;align=left;verticalAlign=top;spacingLeft=4;spacingRight=4;overflow=hidden;rotatable=0;points=[[0,0.5],[1,0.5]];portConstraint=eastwest;" vertex="1" parent="xGdSi-OeFkMIGdHeow2S-136">
          <mxGeometry y="560.0799999999999" width="313" height="24" as="geometry" />
        </mxCell>
        <mxCell id="xGdSi-OeFkMIGdHeow2S-161" value="+run(): void" style="text;strokeColor=none;fillColor=none;align=left;verticalAlign=top;spacingLeft=4;spacingRight=4;overflow=hidden;rotatable=0;points=[[0,0.5],[1,0.5]];portConstraint=eastwest;" vertex="1" parent="xGdSi-OeFkMIGdHeow2S-136">
          <mxGeometry y="584.0799999999999" width="313" height="24" as="geometry" />
        </mxCell>
        <mxCell id="xGdSi-OeFkMIGdHeow2S-162" value="Instruction" style="swimlane;fontStyle=1;align=center;verticalAlign=top;childLayout=stackLayout;horizontal=1;startSize=24.35;horizontalStack=0;resizeParent=1;resizeParentMax=0;resizeLast=0;collapsible=0;marginBottom=0;" vertex="1" parent="1">
          <mxGeometry x="759" y="1989" width="322" height="488.35" as="geometry" />
        </mxCell>
        <mxCell id="xGdSi-OeFkMIGdHeow2S-163" value="-timestamp: LocalTime" style="text;strokeColor=none;fillColor=none;align=left;verticalAlign=top;spacingLeft=4;spacingRight=4;overflow=hidden;rotatable=0;points=[[0,0.5],[1,0.5]];portConstraint=eastwest;" vertex="1" parent="xGdSi-OeFkMIGdHeow2S-162">
          <mxGeometry y="24.35" width="322" height="24" as="geometry" />
        </mxCell>
        <mxCell id="xGdSi-OeFkMIGdHeow2S-164" value="-buttonDirection: Direction" style="text;strokeColor=none;fillColor=none;align=left;verticalAlign=top;spacingLeft=4;spacingRight=4;overflow=hidden;rotatable=0;points=[[0,0.5],[1,0.5]];portConstraint=eastwest;" vertex="1" parent="xGdSi-OeFkMIGdHeow2S-162">
          <mxGeometry y="48.35" width="322" height="24" as="geometry" />
        </mxCell>
        <mxCell id="xGdSi-OeFkMIGdHeow2S-165" value="-pickupFloor: int" style="text;strokeColor=none;fillColor=none;align=left;verticalAlign=top;spacingLeft=4;spacingRight=4;overflow=hidden;rotatable=0;points=[[0,0.5],[1,0.5]];portConstraint=eastwest;" vertex="1" parent="xGdSi-OeFkMIGdHeow2S-162">
          <mxGeometry y="72.35" width="322" height="24" as="geometry" />
        </mxCell>
        <mxCell id="xGdSi-OeFkMIGdHeow2S-166" value="-destinationFloor: int" style="text;strokeColor=none;fillColor=none;align=left;verticalAlign=top;spacingLeft=4;spacingRight=4;overflow=hidden;rotatable=0;points=[[0,0.5],[1,0.5]];portConstraint=eastwest;" vertex="1" parent="xGdSi-OeFkMIGdHeow2S-162">
          <mxGeometry y="96.35" width="322" height="24" as="geometry" />
        </mxCell>
        <mxCell id="xGdSi-OeFkMIGdHeow2S-167" value="-scheduleTick: Instant" style="text;strokeColor=none;fillColor=none;align=left;verticalAlign=top;spacingLeft=4;spacingRight=4;overflow=hidden;rotatable=0;points=[[0,0.5],[1,0.5]];portConstraint=eastwest;" vertex="1" parent="xGdSi-OeFkMIGdHeow2S-162">
          <mxGeometry y="120.35" width="322" height="24" as="geometry" />
        </mxCell>
        <mxCell id="xGdSi-OeFkMIGdHeow2S-168" value="-pickupTick: Instant" style="text;strokeColor=none;fillColor=none;align=left;verticalAlign=top;spacingLeft=4;spacingRight=4;overflow=hidden;rotatable=0;points=[[0,0.5],[1,0.5]];portConstraint=eastwest;" vertex="1" parent="xGdSi-OeFkMIGdHeow2S-162">
          <mxGeometry y="144.35" width="322" height="24" as="geometry" />
        </mxCell>
        <mxCell id="xGdSi-OeFkMIGdHeow2S-169" value="-dropoffTick: Instant" style="text;strokeColor=none;fillColor=none;align=left;verticalAlign=top;spacingLeft=4;spacingRight=4;overflow=hidden;rotatable=0;points=[[0,0.5],[1,0.5]];portConstraint=eastwest;" vertex="1" parent="xGdSi-OeFkMIGdHeow2S-162">
          <mxGeometry y="168.35" width="322" height="24" as="geometry" />
        </mxCell>
        <mxCell id="xGdSi-OeFkMIGdHeow2S-170" style="line;strokeWidth=1;fillColor=none;align=left;verticalAlign=middle;spacingTop=-1;spacingLeft=3;spacingRight=3;rotatable=0;labelPosition=right;points=[];portConstraint=eastwest;strokeColor=inherit;" vertex="1" parent="xGdSi-OeFkMIGdHeow2S-162">
          <mxGeometry y="192.35" width="322" height="8" as="geometry" />
        </mxCell>
        <mxCell id="xGdSi-OeFkMIGdHeow2S-171" value="+Instruction(LocalTime, Direction, int, int)" style="text;strokeColor=none;fillColor=none;align=left;verticalAlign=top;spacingLeft=4;spacingRight=4;overflow=hidden;rotatable=0;points=[[0,0.5],[1,0.5]];portConstraint=eastwest;" vertex="1" parent="xGdSi-OeFkMIGdHeow2S-162">
          <mxGeometry y="200.35" width="322" height="24" as="geometry" />
        </mxCell>
        <mxCell id="xGdSi-OeFkMIGdHeow2S-172" value="+parse(String): Instruction" style="text;strokeColor=none;fillColor=none;align=left;verticalAlign=top;spacingLeft=4;spacingRight=4;overflow=hidden;rotatable=0;points=[[0,0.5],[1,0.5]];portConstraint=eastwest;" vertex="1" parent="xGdSi-OeFkMIGdHeow2S-162">
          <mxGeometry y="224.35" width="322" height="24" as="geometry" />
        </mxCell>
        <mxCell id="xGdSi-OeFkMIGdHeow2S-173" value="+getTimestamp(): LocalTime" style="text;strokeColor=none;fillColor=none;align=left;verticalAlign=top;spacingLeft=4;spacingRight=4;overflow=hidden;rotatable=0;points=[[0,0.5],[1,0.5]];portConstraint=eastwest;" vertex="1" parent="xGdSi-OeFkMIGdHeow2S-162">
          <mxGeometry y="248.35" width="322" height="24" as="geometry" />
        </mxCell>
        <mxCell id="xGdSi-OeFkMIGdHeow2S-174" value="+getButtonDirection(): Direction" style="text;strokeColor=none;fillColor=none;align=left;verticalAlign=top;spacingLeft=4;spacingRight=4;overflow=hidden;rotatable=0;points=[[0,0.5],[1,0.5]];portConstraint=eastwest;" vertex="1" parent="xGdSi-OeFkMIGdHeow2S-162">
          <mxGeometry y="272.35" width="322" height="24" as="geometry" />
        </mxCell>
        <mxCell id="xGdSi-OeFkMIGdHeow2S-175" value="+getPickupFloor(): int" style="text;strokeColor=none;fillColor=none;align=left;verticalAlign=top;spacingLeft=4;spacingRight=4;overflow=hidden;rotatable=0;points=[[0,0.5],[1,0.5]];portConstraint=eastwest;" vertex="1" parent="xGdSi-OeFkMIGdHeow2S-162">
          <mxGeometry y="296.35" width="322" height="24" as="geometry" />
        </mxCell>
        <mxCell id="xGdSi-OeFkMIGdHeow2S-176" value="+getDestinationFloor(): int" style="text;strokeColor=none;fillColor=none;align=left;verticalAlign=top;spacingLeft=4;spacingRight=4;overflow=hidden;rotatable=0;points=[[0,0.5],[1,0.5]];portConstraint=eastwest;" vertex="1" parent="xGdSi-OeFkMIGdHeow2S-162">
          <mxGeometry y="320.35" width="322" height="24" as="geometry" />
        </mxCell>
        <mxCell id="xGdSi-OeFkMIGdHeow2S-177" value="+setPickupTick(): void" style="text;strokeColor=none;fillColor=none;align=left;verticalAlign=top;spacingLeft=4;spacingRight=4;overflow=hidden;rotatable=0;points=[[0,0.5],[1,0.5]];portConstraint=eastwest;" vertex="1" parent="xGdSi-OeFkMIGdHeow2S-162">
          <mxGeometry y="344.35" width="322" height="24" as="geometry" />
        </mxCell>
        <mxCell id="xGdSi-OeFkMIGdHeow2S-178" value="+setDropoffTick(): void" style="text;strokeColor=none;fillColor=none;align=left;verticalAlign=top;spacingLeft=4;spacingRight=4;overflow=hidden;rotatable=0;points=[[0,0.5],[1,0.5]];portConstraint=eastwest;" vertex="1" parent="xGdSi-OeFkMIGdHeow2S-162">
          <mxGeometry y="368.35" width="322" height="24" as="geometry" />
        </mxCell>
        <mxCell id="xGdSi-OeFkMIGdHeow2S-179" value="+getTotalTime(): long" style="text;strokeColor=none;fillColor=none;align=left;verticalAlign=top;spacingLeft=4;spacingRight=4;overflow=hidden;rotatable=0;points=[[0,0.5],[1,0.5]];portConstraint=eastwest;" vertex="1" parent="xGdSi-OeFkMIGdHeow2S-162">
          <mxGeometry y="392.35" width="322" height="24" as="geometry" />
        </mxCell>
        <mxCell id="xGdSi-OeFkMIGdHeow2S-180" value="+getPickupTime(): long" style="text;strokeColor=none;fillColor=none;align=left;verticalAlign=top;spacingLeft=4;spacingRight=4;overflow=hidden;rotatable=0;points=[[0,0.5],[1,0.5]];portConstraint=eastwest;" vertex="1" parent="xGdSi-OeFkMIGdHeow2S-162">
          <mxGeometry y="416.35" width="322" height="24" as="geometry" />
        </mxCell>
        <mxCell id="xGdSi-OeFkMIGdHeow2S-181" value="+getDropoffTime(): long" style="text;strokeColor=none;fillColor=none;align=left;verticalAlign=top;spacingLeft=4;spacingRight=4;overflow=hidden;rotatable=0;points=[[0,0.5],[1,0.5]];portConstraint=eastwest;" vertex="1" parent="xGdSi-OeFkMIGdHeow2S-162">
          <mxGeometry y="440.35" width="322" height="24" as="geometry" />
        </mxCell>
        <mxCell id="xGdSi-OeFkMIGdHeow2S-182" value="+toString(): String" style="text;strokeColor=none;fillColor=none;align=left;verticalAlign=top;spacingLeft=4;spacingRight=4;overflow=hidden;rotatable=0;points=[[0,0.5],[1,0.5]];portConstraint=eastwest;" vertex="1" parent="xGdSi-OeFkMIGdHeow2S-162">
          <mxGeometry y="464.35" width="322" height="24" as="geometry" />
        </mxCell>
        <mxCell id="xGdSi-OeFkMIGdHeow2S-183" value="SchedulerSystem" style="swimlane;fontStyle=1;align=center;verticalAlign=top;childLayout=stackLayout;horizontal=1;startSize=24.125;horizontalStack=0;resizeParent=1;resizeParentMax=0;resizeLast=0;collapsible=0;marginBottom=0;" vertex="1" parent="1">
          <mxGeometry x="1117" y="949" width="416" height="584.125" as="geometry" />
        </mxCell>
        <mxCell id="xGdSi-OeFkMIGdHeow2S-184" value="-log: ArrayList" style="text;strokeColor=none;fillColor=none;align=left;verticalAlign=top;spacingLeft=4;spacingRight=4;overflow=hidden;rotatable=0;points=[[0,0.5],[1,0.5]];portConstraint=eastwest;" vertex="1" parent="xGdSi-OeFkMIGdHeow2S-183">
          <mxGeometry y="24.125" width="416" height="24" as="geometry" />
        </mxCell>
        <mxCell id="xGdSi-OeFkMIGdHeow2S-185" value="-pendingInstructions: BlockingQueue" style="text;strokeColor=none;fillColor=none;align=left;verticalAlign=top;spacingLeft=4;spacingRight=4;overflow=hidden;rotatable=0;points=[[0,0.5],[1,0.5]];portConstraint=eastwest;" vertex="1" parent="xGdSi-OeFkMIGdHeow2S-183">
          <mxGeometry y="48.125" width="416" height="24" as="geometry" />
        </mxCell>
        <mxCell id="xGdSi-OeFkMIGdHeow2S-186" value="-allInstructions: ArrayList" style="text;strokeColor=none;fillColor=none;align=left;verticalAlign=top;spacingLeft=4;spacingRight=4;overflow=hidden;rotatable=0;points=[[0,0.5],[1,0.5]];portConstraint=eastwest;" vertex="1" parent="xGdSi-OeFkMIGdHeow2S-183">
          <mxGeometry y="72.125" width="416" height="24" as="geometry" />
        </mxCell>
        <mxCell id="xGdSi-OeFkMIGdHeow2S-187" value="-state: SchedulerState" style="text;strokeColor=none;fillColor=none;align=left;verticalAlign=top;spacingLeft=4;spacingRight=4;overflow=hidden;rotatable=0;points=[[0,0.5],[1,0.5]];portConstraint=eastwest;" vertex="1" parent="xGdSi-OeFkMIGdHeow2S-183">
          <mxGeometry y="96.125" width="416" height="24" as="geometry" />
        </mxCell>
        <mxCell id="xGdSi-OeFkMIGdHeow2S-188" value="+running: boolean" style="text;strokeColor=none;fillColor=none;align=left;verticalAlign=top;spacingLeft=4;spacingRight=4;overflow=hidden;rotatable=0;points=[[0,0.5],[1,0.5]];portConstraint=eastwest;" vertex="1" parent="xGdSi-OeFkMIGdHeow2S-183">
          <mxGeometry y="120.125" width="416" height="24" as="geometry" />
        </mxCell>
        <mxCell id="xGdSi-OeFkMIGdHeow2S-189" value="+elevators: HashMap" style="text;strokeColor=none;fillColor=none;align=left;verticalAlign=top;spacingLeft=4;spacingRight=4;overflow=hidden;rotatable=0;points=[[0,0.5],[1,0.5]];portConstraint=eastwest;" vertex="1" parent="xGdSi-OeFkMIGdHeow2S-183">
          <mxGeometry y="144.125" width="416" height="24" as="geometry" />
        </mxCell>
        <mxCell id="xGdSi-OeFkMIGdHeow2S-190" value="+floors: HashMap" style="text;strokeColor=none;fillColor=none;align=left;verticalAlign=top;spacingLeft=4;spacingRight=4;overflow=hidden;rotatable=0;points=[[0,0.5],[1,0.5]];portConstraint=eastwest;" vertex="1" parent="xGdSi-OeFkMIGdHeow2S-183">
          <mxGeometry y="168.125" width="416" height="24" as="geometry" />
        </mxCell>
        <mxCell id="xGdSi-OeFkMIGdHeow2S-191" value="+sSocket: DatagramSocket" style="text;strokeColor=none;fillColor=none;align=left;verticalAlign=top;spacingLeft=4;spacingRight=4;overflow=hidden;rotatable=0;points=[[0,0.5],[1,0.5]];portConstraint=eastwest;" vertex="1" parent="xGdSi-OeFkMIGdHeow2S-183">
          <mxGeometry y="192.125" width="416" height="24" as="geometry" />
        </mxCell>
        <mxCell id="xGdSi-OeFkMIGdHeow2S-192" value="+rSocket: DatagramSocket" style="text;strokeColor=none;fillColor=none;align=left;verticalAlign=top;spacingLeft=4;spacingRight=4;overflow=hidden;rotatable=0;points=[[0,0.5],[1,0.5]];portConstraint=eastwest;" vertex="1" parent="xGdSi-OeFkMIGdHeow2S-183">
          <mxGeometry y="216.125" width="416" height="24" as="geometry" />
        </mxCell>
        <mxCell id="xGdSi-OeFkMIGdHeow2S-193" value="-controller: Updatable" style="text;strokeColor=none;fillColor=none;align=left;verticalAlign=top;spacingLeft=4;spacingRight=4;overflow=hidden;rotatable=0;points=[[0,0.5],[1,0.5]];portConstraint=eastwest;" vertex="1" parent="xGdSi-OeFkMIGdHeow2S-183">
          <mxGeometry y="240.125" width="416" height="24" as="geometry" />
        </mxCell>
        <mxCell id="xGdSi-OeFkMIGdHeow2S-194" style="line;strokeWidth=1;fillColor=none;align=left;verticalAlign=middle;spacingTop=-1;spacingLeft=3;spacingRight=3;rotatable=0;labelPosition=right;points=[];portConstraint=eastwest;strokeColor=inherit;" vertex="1" parent="xGdSi-OeFkMIGdHeow2S-183">
          <mxGeometry y="264.125" width="416" height="8" as="geometry" />
        </mxCell>
        <mxCell id="xGdSi-OeFkMIGdHeow2S-195" value="+SchedulerSystem()" style="text;strokeColor=none;fillColor=none;align=left;verticalAlign=top;spacingLeft=4;spacingRight=4;overflow=hidden;rotatable=0;points=[[0,0.5],[1,0.5]];portConstraint=eastwest;" vertex="1" parent="xGdSi-OeFkMIGdHeow2S-183">
          <mxGeometry y="272.125" width="416" height="24" as="geometry" />
        </mxCell>
        <mxCell id="xGdSi-OeFkMIGdHeow2S-196" value="+SchedulerSystem(Updatable)" style="text;strokeColor=none;fillColor=none;align=left;verticalAlign=top;spacingLeft=4;spacingRight=4;overflow=hidden;rotatable=0;points=[[0,0.5],[1,0.5]];portConstraint=eastwest;" vertex="1" parent="xGdSi-OeFkMIGdHeow2S-183">
          <mxGeometry y="296.125" width="416" height="24" as="geometry" />
        </mxCell>
        <mxCell id="xGdSi-OeFkMIGdHeow2S-197" value="+close(): void" style="text;strokeColor=none;fillColor=none;align=left;verticalAlign=top;spacingLeft=4;spacingRight=4;overflow=hidden;rotatable=0;points=[[0,0.5],[1,0.5]];portConstraint=eastwest;" vertex="1" parent="xGdSi-OeFkMIGdHeow2S-183">
          <mxGeometry y="320.125" width="416" height="24" as="geometry" />
        </mxCell>
        <mxCell id="xGdSi-OeFkMIGdHeow2S-198" value="+addInstruction(Instruction): void" style="text;strokeColor=none;fillColor=none;align=left;verticalAlign=top;spacingLeft=4;spacingRight=4;overflow=hidden;rotatable=0;points=[[0,0.5],[1,0.5]];portConstraint=eastwest;" vertex="1" parent="xGdSi-OeFkMIGdHeow2S-183">
          <mxGeometry y="344.125" width="416" height="24" as="geometry" />
        </mxCell>
        <mxCell id="xGdSi-OeFkMIGdHeow2S-199" value="+getInstruction(): Instruction" style="text;strokeColor=none;fillColor=none;align=left;verticalAlign=top;spacingLeft=4;spacingRight=4;overflow=hidden;rotatable=0;points=[[0,0.5],[1,0.5]];portConstraint=eastwest;" vertex="1" parent="xGdSi-OeFkMIGdHeow2S-183">
          <mxGeometry y="368.125" width="416" height="24" as="geometry" />
        </mxCell>
        <mxCell id="xGdSi-OeFkMIGdHeow2S-200" value="+getAllInstructions(): ArrayList" style="text;strokeColor=none;fillColor=none;align=left;verticalAlign=top;spacingLeft=4;spacingRight=4;overflow=hidden;rotatable=0;points=[[0,0.5],[1,0.5]];portConstraint=eastwest;" vertex="1" parent="xGdSi-OeFkMIGdHeow2S-183">
          <mxGeometry y="392.125" width="416" height="24" as="geometry" />
        </mxCell>
        <mxCell id="xGdSi-OeFkMIGdHeow2S-201" value="+addEvent(Event): void" style="text;strokeColor=none;fillColor=none;align=left;verticalAlign=top;spacingLeft=4;spacingRight=4;overflow=hidden;rotatable=0;points=[[0,0.5],[1,0.5]];portConstraint=eastwest;" vertex="1" parent="xGdSi-OeFkMIGdHeow2S-183">
          <mxGeometry y="416.125" width="416" height="24" as="geometry" />
        </mxCell>
        <mxCell id="xGdSi-OeFkMIGdHeow2S-202" value="+getSchedulerState(): SchedulerState" style="text;strokeColor=none;fillColor=none;align=left;verticalAlign=top;spacingLeft=4;spacingRight=4;overflow=hidden;rotatable=0;points=[[0,0.5],[1,0.5]];portConstraint=eastwest;" vertex="1" parent="xGdSi-OeFkMIGdHeow2S-183">
          <mxGeometry y="440.125" width="416" height="24" as="geometry" />
        </mxCell>
        <mxCell id="xGdSi-OeFkMIGdHeow2S-203" value="+setState(SchedulerState): void" style="text;strokeColor=none;fillColor=none;align=left;verticalAlign=top;spacingLeft=4;spacingRight=4;overflow=hidden;rotatable=0;points=[[0,0.5],[1,0.5]];portConstraint=eastwest;" vertex="1" parent="xGdSi-OeFkMIGdHeow2S-183">
          <mxGeometry y="464.125" width="416" height="24" as="geometry" />
        </mxCell>
        <mxCell id="xGdSi-OeFkMIGdHeow2S-204" value="+getInstructionFromTimestamp(LocalTime): Instruction" style="text;strokeColor=none;fillColor=none;align=left;verticalAlign=top;spacingLeft=4;spacingRight=4;overflow=hidden;rotatable=0;points=[[0,0.5],[1,0.5]];portConstraint=eastwest;" vertex="1" parent="xGdSi-OeFkMIGdHeow2S-183">
          <mxGeometry y="488.125" width="416" height="24" as="geometry" />
        </mxCell>
        <mxCell id="xGdSi-OeFkMIGdHeow2S-205" value="+updateController(): void" style="text;strokeColor=none;fillColor=none;align=left;verticalAlign=top;spacingLeft=4;spacingRight=4;overflow=hidden;rotatable=0;points=[[0,0.5],[1,0.5]];portConstraint=eastwest;" vertex="1" parent="xGdSi-OeFkMIGdHeow2S-183">
          <mxGeometry y="512.125" width="416" height="24" as="geometry" />
        </mxCell>
        <mxCell id="xGdSi-OeFkMIGdHeow2S-206" value="+getLog(): ArrayList" style="text;strokeColor=none;fillColor=none;align=left;verticalAlign=top;spacingLeft=4;spacingRight=4;overflow=hidden;rotatable=0;points=[[0,0.5],[1,0.5]];portConstraint=eastwest;" vertex="1" parent="xGdSi-OeFkMIGdHeow2S-183">
          <mxGeometry y="536.125" width="416" height="24" as="geometry" />
        </mxCell>
        <mxCell id="xGdSi-OeFkMIGdHeow2S-207" value="+run(): void" style="text;strokeColor=none;fillColor=none;align=left;verticalAlign=top;spacingLeft=4;spacingRight=4;overflow=hidden;rotatable=0;points=[[0,0.5],[1,0.5]];portConstraint=eastwest;" vertex="1" parent="xGdSi-OeFkMIGdHeow2S-183">
          <mxGeometry y="560.125" width="416" height="24" as="geometry" />
        </mxCell>
        <mxCell id="xGdSi-OeFkMIGdHeow2S-208" value="Defs" style="swimlane;fontStyle=1;align=center;verticalAlign=top;childLayout=stackLayout;horizontal=1;startSize=28.4;horizontalStack=0;resizeParent=1;resizeParentMax=0;resizeLast=0;collapsible=0;marginBottom=0;" vertex="1" parent="1">
          <mxGeometry x="483" y="216" width="347" height="148.4" as="geometry" />
        </mxCell>
        <mxCell id="xGdSi-OeFkMIGdHeow2S-209" value="+TIMESTAMP_FORMATTER: DateTimeFormatter" style="text;strokeColor=none;fillColor=none;align=left;verticalAlign=top;spacingLeft=4;spacingRight=4;overflow=hidden;rotatable=0;points=[[0,0.5],[1,0.5]];portConstraint=eastwest;" vertex="1" parent="xGdSi-OeFkMIGdHeow2S-208">
          <mxGeometry y="28.4" width="347" height="28" as="geometry" />
        </mxCell>
        <mxCell id="xGdSi-OeFkMIGdHeow2S-210" value="+MSG_SIZE: int" style="text;strokeColor=none;fillColor=none;align=left;verticalAlign=top;spacingLeft=4;spacingRight=4;overflow=hidden;rotatable=0;points=[[0,0.5],[1,0.5]];portConstraint=eastwest;" vertex="1" parent="xGdSi-OeFkMIGdHeow2S-208">
          <mxGeometry y="56.4" width="347" height="28" as="geometry" />
        </mxCell>
        <mxCell id="xGdSi-OeFkMIGdHeow2S-211" value="+SCHEDULER_PORT: int" style="text;strokeColor=none;fillColor=none;align=left;verticalAlign=top;spacingLeft=4;spacingRight=4;overflow=hidden;rotatable=0;points=[[0,0.5],[1,0.5]];portConstraint=eastwest;" vertex="1" parent="xGdSi-OeFkMIGdHeow2S-208">
          <mxGeometry y="84.4" width="347" height="28" as="geometry" />
        </mxCell>
        <mxCell id="xGdSi-OeFkMIGdHeow2S-212" style="line;strokeWidth=1;fillColor=none;align=left;verticalAlign=middle;spacingTop=-1;spacingLeft=3;spacingRight=3;rotatable=0;labelPosition=right;points=[];portConstraint=eastwest;strokeColor=inherit;" vertex="1" parent="xGdSi-OeFkMIGdHeow2S-208">
          <mxGeometry y="112.4" width="347" height="8" as="geometry" />
        </mxCell>
        <mxCell id="xGdSi-OeFkMIGdHeow2S-213" value="+getMessage(byte[], int): String" style="text;strokeColor=none;fillColor=none;align=left;verticalAlign=top;spacingLeft=4;spacingRight=4;overflow=hidden;rotatable=0;points=[[0,0.5],[1,0.5]];portConstraint=eastwest;" vertex="1" parent="xGdSi-OeFkMIGdHeow2S-208">
          <mxGeometry y="120.4" width="347" height="28" as="geometry" />
        </mxCell>
        <mxCell id="xGdSi-OeFkMIGdHeow2S-214" value="ElevatorDefs" style="swimlane;fontStyle=1;align=center;verticalAlign=top;childLayout=stackLayout;horizontal=1;startSize=24.476190476190474;horizontalStack=0;resizeParent=1;resizeParentMax=0;resizeLast=0;collapsible=0;marginBottom=0;" vertex="1" parent="1">
          <mxGeometry x="880" y="158" width="236" height="252.47619047619048" as="geometry" />
        </mxCell>
        <mxCell id="xGdSi-OeFkMIGdHeow2S-215" value="+ADJACENT_FLOOR_TIME: long" style="text;strokeColor=none;fillColor=none;align=left;verticalAlign=top;spacingLeft=4;spacingRight=4;overflow=hidden;rotatable=0;points=[[0,0.5],[1,0.5]];portConstraint=eastwest;" vertex="1" parent="xGdSi-OeFkMIGdHeow2S-214">
          <mxGeometry y="24.476190476190474" width="236" height="24" as="geometry" />
        </mxCell>
        <mxCell id="xGdSi-OeFkMIGdHeow2S-216" value="+DOOR_OPENING_TIME: long" style="text;strokeColor=none;fillColor=none;align=left;verticalAlign=top;spacingLeft=4;spacingRight=4;overflow=hidden;rotatable=0;points=[[0,0.5],[1,0.5]];portConstraint=eastwest;" vertex="1" parent="xGdSi-OeFkMIGdHeow2S-214">
          <mxGeometry y="48.476190476190474" width="236" height="24" as="geometry" />
        </mxCell>
        <mxCell id="xGdSi-OeFkMIGdHeow2S-217" value="+DOOR_CLOSING_TIME: long" style="text;strokeColor=none;fillColor=none;align=left;verticalAlign=top;spacingLeft=4;spacingRight=4;overflow=hidden;rotatable=0;points=[[0,0.5],[1,0.5]];portConstraint=eastwest;" vertex="1" parent="xGdSi-OeFkMIGdHeow2S-214">
          <mxGeometry y="72.47619047619048" width="236" height="24" as="geometry" />
        </mxCell>
        <mxCell id="xGdSi-OeFkMIGdHeow2S-218" value="+DOOR_STUCK_TIME: long" style="text;strokeColor=none;fillColor=none;align=left;verticalAlign=top;spacingLeft=4;spacingRight=4;overflow=hidden;rotatable=0;points=[[0,0.5],[1,0.5]];portConstraint=eastwest;" vertex="1" parent="xGdSi-OeFkMIGdHeow2S-214">
          <mxGeometry y="96.47619047619048" width="236" height="24" as="geometry" />
        </mxCell>
        <mxCell id="xGdSi-OeFkMIGdHeow2S-219" value="+LOADING_TIME: long" style="text;strokeColor=none;fillColor=none;align=left;verticalAlign=top;spacingLeft=4;spacingRight=4;overflow=hidden;rotatable=0;points=[[0,0.5],[1,0.5]];portConstraint=eastwest;" vertex="1" parent="xGdSi-OeFkMIGdHeow2S-214">
          <mxGeometry y="120.47619047619048" width="236" height="24" as="geometry" />
        </mxCell>
        <mxCell id="xGdSi-OeFkMIGdHeow2S-220" value="+UNLOADING_TIME: long" style="text;strokeColor=none;fillColor=none;align=left;verticalAlign=top;spacingLeft=4;spacingRight=4;overflow=hidden;rotatable=0;points=[[0,0.5],[1,0.5]];portConstraint=eastwest;" vertex="1" parent="xGdSi-OeFkMIGdHeow2S-214">
          <mxGeometry y="144.47619047619048" width="236" height="24" as="geometry" />
        </mxCell>
        <mxCell id="xGdSi-OeFkMIGdHeow2S-221" value="+ACCELERATION_TIME: long" style="text;strokeColor=none;fillColor=none;align=left;verticalAlign=top;spacingLeft=4;spacingRight=4;overflow=hidden;rotatable=0;points=[[0,0.5],[1,0.5]];portConstraint=eastwest;" vertex="1" parent="xGdSi-OeFkMIGdHeow2S-214">
          <mxGeometry y="168.47619047619048" width="236" height="24" as="geometry" />
        </mxCell>
        <mxCell id="xGdSi-OeFkMIGdHeow2S-222" value="+MAX_SPEED: float" style="text;strokeColor=none;fillColor=none;align=left;verticalAlign=top;spacingLeft=4;spacingRight=4;overflow=hidden;rotatable=0;points=[[0,0.5],[1,0.5]];portConstraint=eastwest;" vertex="1" parent="xGdSi-OeFkMIGdHeow2S-214">
          <mxGeometry y="192.47619047619048" width="236" height="24" as="geometry" />
        </mxCell>
        <mxCell id="xGdSi-OeFkMIGdHeow2S-223" value="+TICK_RATE: long" style="text;strokeColor=none;fillColor=none;align=left;verticalAlign=top;spacingLeft=4;spacingRight=4;overflow=hidden;rotatable=0;points=[[0,0.5],[1,0.5]];portConstraint=eastwest;" vertex="1" parent="xGdSi-OeFkMIGdHeow2S-214">
          <mxGeometry y="216.47619047619048" width="236" height="24" as="geometry" />
        </mxCell>
        <mxCell id="xGdSi-OeFkMIGdHeow2S-224" style="line;strokeWidth=1;fillColor=none;align=left;verticalAlign=middle;spacingTop=-1;spacingLeft=3;spacingRight=3;rotatable=0;labelPosition=right;points=[];portConstraint=eastwest;strokeColor=inherit;" vertex="1" parent="xGdSi-OeFkMIGdHeow2S-214">
          <mxGeometry y="240.47619047619048" width="236" height="12" as="geometry" />
        </mxCell>
        <mxCell id="xGdSi-OeFkMIGdHeow2S-225" value="SchedulerDefs" style="swimlane;fontStyle=1;align=center;verticalAlign=top;childLayout=stackLayout;horizontal=1;startSize=27.428571428571427;horizontalStack=0;resizeParent=1;resizeParentMax=0;resizeLast=0;collapsible=0;marginBottom=0;" vertex="1" parent="1">
          <mxGeometry x="1166" y="239" width="267" height="95.42857142857143" as="geometry" />
        </mxCell>
        <mxCell id="xGdSi-OeFkMIGdHeow2S-226" value="+PROCESSING_REQUEST_TIME: long" style="text;strokeColor=none;fillColor=none;align=left;verticalAlign=top;spacingLeft=4;spacingRight=4;overflow=hidden;rotatable=0;points=[[0,0.5],[1,0.5]];portConstraint=eastwest;" vertex="1" parent="xGdSi-OeFkMIGdHeow2S-225">
          <mxGeometry y="27.428571428571427" width="267" height="27" as="geometry" />
        </mxCell>
        <mxCell id="xGdSi-OeFkMIGdHeow2S-227" value="+FAULT_TIME: long" style="text;strokeColor=none;fillColor=none;align=left;verticalAlign=top;spacingLeft=4;spacingRight=4;overflow=hidden;rotatable=0;points=[[0,0.5],[1,0.5]];portConstraint=eastwest;" vertex="1" parent="xGdSi-OeFkMIGdHeow2S-225">
          <mxGeometry y="54.42857142857143" width="267" height="27" as="geometry" />
        </mxCell>
        <mxCell id="xGdSi-OeFkMIGdHeow2S-228" style="line;strokeWidth=1;fillColor=none;align=left;verticalAlign=middle;spacingTop=-1;spacingLeft=3;spacingRight=3;rotatable=0;labelPosition=right;points=[];portConstraint=eastwest;strokeColor=inherit;" vertex="1" parent="xGdSi-OeFkMIGdHeow2S-225">
          <mxGeometry y="81.42857142857143" width="267" height="14" as="geometry" />
        </mxCell>
        <mxCell id="xGdSi-OeFkMIGdHeow2S-229" value="&lt;&lt;enumeration&gt;&gt;&#xa;Direction" style="swimlane;fontStyle=1;align=center;verticalAlign=top;childLayout=stackLayout;horizontal=1;startSize=44.625;horizontalStack=0;resizeParent=1;resizeParentMax=0;resizeLast=0;collapsible=0;marginBottom=0;" vertex="1" parent="1">
          <mxGeometry x="1484" y="227" width="123" height="119.625" as="geometry" />
        </mxCell>
        <mxCell id="xGdSi-OeFkMIGdHeow2S-230" value="DOWN" style="text;strokeColor=none;fillColor=none;align=left;verticalAlign=top;spacingLeft=4;spacingRight=4;overflow=hidden;rotatable=0;points=[[0,0.5],[1,0.5]];portConstraint=eastwest;" vertex="1" parent="xGdSi-OeFkMIGdHeow2S-229">
          <mxGeometry y="44.625" width="123" height="30" as="geometry" />
        </mxCell>
        <mxCell id="xGdSi-OeFkMIGdHeow2S-231" value="UP" style="text;strokeColor=none;fillColor=none;align=left;verticalAlign=top;spacingLeft=4;spacingRight=4;overflow=hidden;rotatable=0;points=[[0,0.5],[1,0.5]];portConstraint=eastwest;" vertex="1" parent="xGdSi-OeFkMIGdHeow2S-229">
          <mxGeometry y="74.625" width="123" height="30" as="geometry" />
        </mxCell>
        <mxCell id="xGdSi-OeFkMIGdHeow2S-232" style="line;strokeWidth=1;fillColor=none;align=left;verticalAlign=middle;spacingTop=-1;spacingLeft=3;spacingRight=3;rotatable=0;labelPosition=right;points=[];portConstraint=eastwest;strokeColor=inherit;" vertex="1" parent="xGdSi-OeFkMIGdHeow2S-229">
          <mxGeometry y="104.625" width="123" height="15" as="geometry" />
        </mxCell>
        <mxCell id="xGdSi-OeFkMIGdHeow2S-233" value="&lt;&lt;enumeration&gt;&gt;&#xa;EventType" style="swimlane;fontStyle=1;align=center;verticalAlign=top;childLayout=stackLayout;horizontal=1;startSize=36.34090909090909;horizontalStack=0;resizeParent=1;resizeParentMax=0;resizeLast=0;collapsible=0;marginBottom=0;" vertex="1" parent="1">
          <mxGeometry x="1656" y="20" width="326" height="528.3409090909091" as="geometry" />
        </mxCell>
        <mxCell id="xGdSi-OeFkMIGdHeow2S-234" value="ELEVATOR_IDLE_TOO_LONG" style="text;strokeColor=none;fillColor=none;align=left;verticalAlign=top;spacingLeft=4;spacingRight=4;overflow=hidden;rotatable=0;points=[[0,0.5],[1,0.5]];portConstraint=eastwest;" vertex="1" parent="xGdSi-OeFkMIGdHeow2S-233">
          <mxGeometry y="36.34090909090909" width="326" height="24" as="geometry" />
        </mxCell>
        <mxCell id="xGdSi-OeFkMIGdHeow2S-235" value="ELEVATOR_TRAVERSED_FLOOR" style="text;strokeColor=none;fillColor=none;align=left;verticalAlign=top;spacingLeft=4;spacingRight=4;overflow=hidden;rotatable=0;points=[[0,0.5],[1,0.5]];portConstraint=eastwest;" vertex="1" parent="xGdSi-OeFkMIGdHeow2S-233">
          <mxGeometry y="60.34090909090909" width="326" height="24" as="geometry" />
        </mxCell>
        <mxCell id="xGdSi-OeFkMIGdHeow2S-236" value="ELEVATOR_ARRIVED" style="text;strokeColor=none;fillColor=none;align=left;verticalAlign=top;spacingLeft=4;spacingRight=4;overflow=hidden;rotatable=0;points=[[0,0.5],[1,0.5]];portConstraint=eastwest;" vertex="1" parent="xGdSi-OeFkMIGdHeow2S-233">
          <mxGeometry y="84.3409090909091" width="326" height="24" as="geometry" />
        </mxCell>
        <mxCell id="xGdSi-OeFkMIGdHeow2S-237" value="ELEVATOR_DEPARTED" style="text;strokeColor=none;fillColor=none;align=left;verticalAlign=top;spacingLeft=4;spacingRight=4;overflow=hidden;rotatable=0;points=[[0,0.5],[1,0.5]];portConstraint=eastwest;" vertex="1" parent="xGdSi-OeFkMIGdHeow2S-233">
          <mxGeometry y="108.3409090909091" width="326" height="24" as="geometry" />
        </mxCell>
        <mxCell id="xGdSi-OeFkMIGdHeow2S-238" value="ELEVATOR_LOADING" style="text;strokeColor=none;fillColor=none;align=left;verticalAlign=top;spacingLeft=4;spacingRight=4;overflow=hidden;rotatable=0;points=[[0,0.5],[1,0.5]];portConstraint=eastwest;" vertex="1" parent="xGdSi-OeFkMIGdHeow2S-233">
          <mxGeometry y="132.3409090909091" width="326" height="24" as="geometry" />
        </mxCell>
        <mxCell id="xGdSi-OeFkMIGdHeow2S-239" value="ELEVATOR_UNLOADING" style="text;strokeColor=none;fillColor=none;align=left;verticalAlign=top;spacingLeft=4;spacingRight=4;overflow=hidden;rotatable=0;points=[[0,0.5],[1,0.5]];portConstraint=eastwest;" vertex="1" parent="xGdSi-OeFkMIGdHeow2S-233">
          <mxGeometry y="156.3409090909091" width="326" height="24" as="geometry" />
        </mxCell>
        <mxCell id="xGdSi-OeFkMIGdHeow2S-240" value="ELEVATOR_DOOR_OPENING" style="text;strokeColor=none;fillColor=none;align=left;verticalAlign=top;spacingLeft=4;spacingRight=4;overflow=hidden;rotatable=0;points=[[0,0.5],[1,0.5]];portConstraint=eastwest;" vertex="1" parent="xGdSi-OeFkMIGdHeow2S-233">
          <mxGeometry y="180.3409090909091" width="326" height="24" as="geometry" />
        </mxCell>
        <mxCell id="xGdSi-OeFkMIGdHeow2S-241" value="ELEVATOR_DOOR_OPEN" style="text;strokeColor=none;fillColor=none;align=left;verticalAlign=top;spacingLeft=4;spacingRight=4;overflow=hidden;rotatable=0;points=[[0,0.5],[1,0.5]];portConstraint=eastwest;" vertex="1" parent="xGdSi-OeFkMIGdHeow2S-233">
          <mxGeometry y="204.3409090909091" width="326" height="24" as="geometry" />
        </mxCell>
        <mxCell id="xGdSi-OeFkMIGdHeow2S-242" value="ELEVATOR_DOOR_CLOSING" style="text;strokeColor=none;fillColor=none;align=left;verticalAlign=top;spacingLeft=4;spacingRight=4;overflow=hidden;rotatable=0;points=[[0,0.5],[1,0.5]];portConstraint=eastwest;" vertex="1" parent="xGdSi-OeFkMIGdHeow2S-233">
          <mxGeometry y="228.3409090909091" width="326" height="24" as="geometry" />
        </mxCell>
        <mxCell id="xGdSi-OeFkMIGdHeow2S-243" value="ELEVATOR_DOOR_CLOSED" style="text;strokeColor=none;fillColor=none;align=left;verticalAlign=top;spacingLeft=4;spacingRight=4;overflow=hidden;rotatable=0;points=[[0,0.5],[1,0.5]];portConstraint=eastwest;" vertex="1" parent="xGdSi-OeFkMIGdHeow2S-233">
          <mxGeometry y="252.3409090909091" width="326" height="24" as="geometry" />
        </mxCell>
        <mxCell id="xGdSi-OeFkMIGdHeow2S-244" value="ELEVATOR_DOOR_STUCK" style="text;strokeColor=none;fillColor=none;align=left;verticalAlign=top;spacingLeft=4;spacingRight=4;overflow=hidden;rotatable=0;points=[[0,0.5],[1,0.5]];portConstraint=eastwest;" vertex="1" parent="xGdSi-OeFkMIGdHeow2S-233">
          <mxGeometry y="276.3409090909091" width="326" height="24" as="geometry" />
        </mxCell>
        <mxCell id="xGdSi-OeFkMIGdHeow2S-245" value="ELEVATOR_STUCK" style="text;strokeColor=none;fillColor=none;align=left;verticalAlign=top;spacingLeft=4;spacingRight=4;overflow=hidden;rotatable=0;points=[[0,0.5],[1,0.5]];portConstraint=eastwest;" vertex="1" parent="xGdSi-OeFkMIGdHeow2S-233">
          <mxGeometry y="300.3409090909091" width="326" height="24" as="geometry" />
        </mxCell>
        <mxCell id="xGdSi-OeFkMIGdHeow2S-246" value="ELEVATOR_SHUTDOWN" style="text;strokeColor=none;fillColor=none;align=left;verticalAlign=top;spacingLeft=4;spacingRight=4;overflow=hidden;rotatable=0;points=[[0,0.5],[1,0.5]];portConstraint=eastwest;" vertex="1" parent="xGdSi-OeFkMIGdHeow2S-233">
          <mxGeometry y="324.3409090909091" width="326" height="24" as="geometry" />
        </mxCell>
        <mxCell id="xGdSi-OeFkMIGdHeow2S-247" value="ELEVATOR_RECEIVED_REQUEST" style="text;strokeColor=none;fillColor=none;align=left;verticalAlign=top;spacingLeft=4;spacingRight=4;overflow=hidden;rotatable=0;points=[[0,0.5],[1,0.5]];portConstraint=eastwest;" vertex="1" parent="xGdSi-OeFkMIGdHeow2S-233">
          <mxGeometry y="348.3409090909091" width="326" height="24" as="geometry" />
        </mxCell>
        <mxCell id="xGdSi-OeFkMIGdHeow2S-248" value="SCHEDULER_RECEIVED_FLOOR_REQUEST" style="text;strokeColor=none;fillColor=none;align=left;verticalAlign=top;spacingLeft=4;spacingRight=4;overflow=hidden;rotatable=0;points=[[0,0.5],[1,0.5]];portConstraint=eastwest;" vertex="1" parent="xGdSi-OeFkMIGdHeow2S-233">
          <mxGeometry y="372.3409090909091" width="326" height="24" as="geometry" />
        </mxCell>
        <mxCell id="xGdSi-OeFkMIGdHeow2S-249" value="SCHEDULER_RECEIVED_ELEVATOR_REQUEST" style="text;strokeColor=none;fillColor=none;align=left;verticalAlign=top;spacingLeft=4;spacingRight=4;overflow=hidden;rotatable=0;points=[[0,0.5],[1,0.5]];portConstraint=eastwest;" vertex="1" parent="xGdSi-OeFkMIGdHeow2S-233">
          <mxGeometry y="396.3409090909091" width="326" height="24" as="geometry" />
        </mxCell>
        <mxCell id="xGdSi-OeFkMIGdHeow2S-250" value="SCHEDULER_MOVE_TO_IDLE" style="text;strokeColor=none;fillColor=none;align=left;verticalAlign=top;spacingLeft=4;spacingRight=4;overflow=hidden;rotatable=0;points=[[0,0.5],[1,0.5]];portConstraint=eastwest;" vertex="1" parent="xGdSi-OeFkMIGdHeow2S-233">
          <mxGeometry y="420.3409090909091" width="326" height="24" as="geometry" />
        </mxCell>
        <mxCell id="xGdSi-OeFkMIGdHeow2S-251" value="RECEIVED" style="text;strokeColor=none;fillColor=none;align=left;verticalAlign=top;spacingLeft=4;spacingRight=4;overflow=hidden;rotatable=0;points=[[0,0.5],[1,0.5]];portConstraint=eastwest;" vertex="1" parent="xGdSi-OeFkMIGdHeow2S-233">
          <mxGeometry y="444.3409090909091" width="326" height="24" as="geometry" />
        </mxCell>
        <mxCell id="xGdSi-OeFkMIGdHeow2S-252" value="SENT" style="text;strokeColor=none;fillColor=none;align=left;verticalAlign=top;spacingLeft=4;spacingRight=4;overflow=hidden;rotatable=0;points=[[0,0.5],[1,0.5]];portConstraint=eastwest;" vertex="1" parent="xGdSi-OeFkMIGdHeow2S-233">
          <mxGeometry y="468.3409090909091" width="326" height="24" as="geometry" />
        </mxCell>
        <mxCell id="xGdSi-OeFkMIGdHeow2S-253" value="FORWARDED" style="text;strokeColor=none;fillColor=none;align=left;verticalAlign=top;spacingLeft=4;spacingRight=4;overflow=hidden;rotatable=0;points=[[0,0.5],[1,0.5]];portConstraint=eastwest;" vertex="1" parent="xGdSi-OeFkMIGdHeow2S-233">
          <mxGeometry y="492.3409090909091" width="326" height="24" as="geometry" />
        </mxCell>
        <mxCell id="xGdSi-OeFkMIGdHeow2S-254" style="line;strokeWidth=1;fillColor=none;align=left;verticalAlign=middle;spacingTop=-1;spacingLeft=3;spacingRight=3;rotatable=0;labelPosition=right;points=[];portConstraint=eastwest;strokeColor=inherit;" vertex="1" parent="xGdSi-OeFkMIGdHeow2S-233">
          <mxGeometry y="516.3409090909091" width="326" height="12" as="geometry" />
        </mxCell>
        <mxCell id="xGdSi-OeFkMIGdHeow2S-255" value="Event" style="swimlane;fontStyle=1;align=center;verticalAlign=top;childLayout=stackLayout;horizontal=1;startSize=24.928571428571427;horizontalStack=0;resizeParent=1;resizeParentMax=0;resizeLast=0;collapsible=0;marginBottom=0;" vertex="1" parent="1">
          <mxGeometry x="2032" y="112" width="231" height="357.92857142857144" as="geometry" />
        </mxCell>
        <mxCell id="xGdSi-OeFkMIGdHeow2S-256" value="-eventType: EventType" style="text;strokeColor=none;fillColor=none;align=left;verticalAlign=top;spacingLeft=4;spacingRight=4;overflow=hidden;rotatable=0;points=[[0,0.5],[1,0.5]];portConstraint=eastwest;" vertex="1" parent="xGdSi-OeFkMIGdHeow2S-255">
          <mxGeometry y="24.928571428571427" width="231" height="25" as="geometry" />
        </mxCell>
        <mxCell id="xGdSi-OeFkMIGdHeow2S-257" value="-elevatorId: int" style="text;strokeColor=none;fillColor=none;align=left;verticalAlign=top;spacingLeft=4;spacingRight=4;overflow=hidden;rotatable=0;points=[[0,0.5],[1,0.5]];portConstraint=eastwest;" vertex="1" parent="xGdSi-OeFkMIGdHeow2S-255">
          <mxGeometry y="49.92857142857143" width="231" height="25" as="geometry" />
        </mxCell>
        <mxCell id="xGdSi-OeFkMIGdHeow2S-258" value="-secondary: int" style="text;strokeColor=none;fillColor=none;align=left;verticalAlign=top;spacingLeft=4;spacingRight=4;overflow=hidden;rotatable=0;points=[[0,0.5],[1,0.5]];portConstraint=eastwest;" vertex="1" parent="xGdSi-OeFkMIGdHeow2S-255">
          <mxGeometry y="74.92857142857143" width="231" height="25" as="geometry" />
        </mxCell>
        <mxCell id="xGdSi-OeFkMIGdHeow2S-259" value="-message: String" style="text;strokeColor=none;fillColor=none;align=left;verticalAlign=top;spacingLeft=4;spacingRight=4;overflow=hidden;rotatable=0;points=[[0,0.5],[1,0.5]];portConstraint=eastwest;" vertex="1" parent="xGdSi-OeFkMIGdHeow2S-255">
          <mxGeometry y="99.92857142857143" width="231" height="25" as="geometry" />
        </mxCell>
        <mxCell id="xGdSi-OeFkMIGdHeow2S-260" style="line;strokeWidth=1;fillColor=none;align=left;verticalAlign=middle;spacingTop=-1;spacingLeft=3;spacingRight=3;rotatable=0;labelPosition=right;points=[];portConstraint=eastwest;strokeColor=inherit;" vertex="1" parent="xGdSi-OeFkMIGdHeow2S-255">
          <mxGeometry y="124.92857142857143" width="231" height="8" as="geometry" />
        </mxCell>
        <mxCell id="xGdSi-OeFkMIGdHeow2S-261" value="+Event(EventType)" style="text;strokeColor=none;fillColor=none;align=left;verticalAlign=top;spacingLeft=4;spacingRight=4;overflow=hidden;rotatable=0;points=[[0,0.5],[1,0.5]];portConstraint=eastwest;" vertex="1" parent="xGdSi-OeFkMIGdHeow2S-255">
          <mxGeometry y="132.92857142857144" width="231" height="25" as="geometry" />
        </mxCell>
        <mxCell id="xGdSi-OeFkMIGdHeow2S-262" value="+Event(EventType, int)" style="text;strokeColor=none;fillColor=none;align=left;verticalAlign=top;spacingLeft=4;spacingRight=4;overflow=hidden;rotatable=0;points=[[0,0.5],[1,0.5]];portConstraint=eastwest;" vertex="1" parent="xGdSi-OeFkMIGdHeow2S-255">
          <mxGeometry y="157.92857142857144" width="231" height="25" as="geometry" />
        </mxCell>
        <mxCell id="xGdSi-OeFkMIGdHeow2S-263" value="+Event(EventType, int, int)" style="text;strokeColor=none;fillColor=none;align=left;verticalAlign=top;spacingLeft=4;spacingRight=4;overflow=hidden;rotatable=0;points=[[0,0.5],[1,0.5]];portConstraint=eastwest;" vertex="1" parent="xGdSi-OeFkMIGdHeow2S-255">
          <mxGeometry y="182.92857142857144" width="231" height="25" as="geometry" />
        </mxCell>
        <mxCell id="xGdSi-OeFkMIGdHeow2S-264" value="+Event(EventType, String)" style="text;strokeColor=none;fillColor=none;align=left;verticalAlign=top;spacingLeft=4;spacingRight=4;overflow=hidden;rotatable=0;points=[[0,0.5],[1,0.5]];portConstraint=eastwest;" vertex="1" parent="xGdSi-OeFkMIGdHeow2S-255">
          <mxGeometry y="207.92857142857144" width="231" height="25" as="geometry" />
        </mxCell>
        <mxCell id="xGdSi-OeFkMIGdHeow2S-265" value="+Event(EventType, int, String)" style="text;strokeColor=none;fillColor=none;align=left;verticalAlign=top;spacingLeft=4;spacingRight=4;overflow=hidden;rotatable=0;points=[[0,0.5],[1,0.5]];portConstraint=eastwest;" vertex="1" parent="xGdSi-OeFkMIGdHeow2S-255">
          <mxGeometry y="232.92857142857144" width="231" height="25" as="geometry" />
        </mxCell>
        <mxCell id="xGdSi-OeFkMIGdHeow2S-266" value="+getEventType(): EventType" style="text;strokeColor=none;fillColor=none;align=left;verticalAlign=top;spacingLeft=4;spacingRight=4;overflow=hidden;rotatable=0;points=[[0,0.5],[1,0.5]];portConstraint=eastwest;" vertex="1" parent="xGdSi-OeFkMIGdHeow2S-255">
          <mxGeometry y="257.92857142857144" width="231" height="25" as="geometry" />
        </mxCell>
        <mxCell id="xGdSi-OeFkMIGdHeow2S-267" value="+getElevatorId(): int" style="text;strokeColor=none;fillColor=none;align=left;verticalAlign=top;spacingLeft=4;spacingRight=4;overflow=hidden;rotatable=0;points=[[0,0.5],[1,0.5]];portConstraint=eastwest;" vertex="1" parent="xGdSi-OeFkMIGdHeow2S-255">
          <mxGeometry y="282.92857142857144" width="231" height="25" as="geometry" />
        </mxCell>
        <mxCell id="xGdSi-OeFkMIGdHeow2S-268" value="+getSecondary(): int" style="text;strokeColor=none;fillColor=none;align=left;verticalAlign=top;spacingLeft=4;spacingRight=4;overflow=hidden;rotatable=0;points=[[0,0.5],[1,0.5]];portConstraint=eastwest;" vertex="1" parent="xGdSi-OeFkMIGdHeow2S-255">
          <mxGeometry y="307.92857142857144" width="231" height="25" as="geometry" />
        </mxCell>
        <mxCell id="xGdSi-OeFkMIGdHeow2S-269" value="+toString(): String" style="text;strokeColor=none;fillColor=none;align=left;verticalAlign=top;spacingLeft=4;spacingRight=4;overflow=hidden;rotatable=0;points=[[0,0.5],[1,0.5]];portConstraint=eastwest;" vertex="1" parent="xGdSi-OeFkMIGdHeow2S-255">
          <mxGeometry y="332.92857142857144" width="231" height="25" as="geometry" />
        </mxCell>
        <mxCell id="xGdSi-OeFkMIGdHeow2S-270" value="ElevatorSubsystemLauncher" style="swimlane;fontStyle=1;align=center;verticalAlign=top;childLayout=stackLayout;horizontal=1;startSize=27.428571428571427;horizontalStack=0;resizeParent=1;resizeParentMax=0;resizeLast=0;collapsible=0;marginBottom=0;" vertex="1" parent="1">
          <mxGeometry x="2313" y="239" width="340" height="89.42857142857143" as="geometry" />
        </mxCell>
        <mxCell id="xGdSi-OeFkMIGdHeow2S-271" style="line;strokeWidth=1;fillColor=none;align=left;verticalAlign=middle;spacingTop=-1;spacingLeft=3;spacingRight=3;rotatable=0;labelPosition=right;points=[];portConstraint=eastwest;strokeColor=inherit;" vertex="1" parent="xGdSi-OeFkMIGdHeow2S-270">
          <mxGeometry y="27.428571428571427" width="340" height="8" as="geometry" />
        </mxCell>
        <mxCell id="xGdSi-OeFkMIGdHeow2S-272" value="+start(Stage): void" style="text;strokeColor=none;fillColor=none;align=left;verticalAlign=top;spacingLeft=4;spacingRight=4;overflow=hidden;rotatable=0;points=[[0,0.5],[1,0.5]];portConstraint=eastwest;" vertex="1" parent="xGdSi-OeFkMIGdHeow2S-270">
          <mxGeometry y="35.42857142857143" width="340" height="27" as="geometry" />
        </mxCell>
        <mxCell id="xGdSi-OeFkMIGdHeow2S-273" value="-onClose(ElevatorSubsystemController): void" style="text;strokeColor=none;fillColor=none;align=left;verticalAlign=top;spacingLeft=4;spacingRight=4;overflow=hidden;rotatable=0;points=[[0,0.5],[1,0.5]];portConstraint=eastwest;" vertex="1" parent="xGdSi-OeFkMIGdHeow2S-270">
          <mxGeometry y="62.42857142857143" width="340" height="27" as="geometry" />
        </mxCell>
        <mxCell id="xGdSi-OeFkMIGdHeow2S-274" value="FloorSubsystemLauncher" style="swimlane;fontStyle=1;align=center;verticalAlign=top;childLayout=stackLayout;horizontal=1;startSize=27.428571428571427;horizontalStack=0;resizeParent=1;resizeParentMax=0;resizeLast=0;collapsible=0;marginBottom=0;" vertex="1" parent="1">
          <mxGeometry x="2703" y="239" width="317" height="89.42857142857143" as="geometry" />
        </mxCell>
        <mxCell id="xGdSi-OeFkMIGdHeow2S-275" style="line;strokeWidth=1;fillColor=none;align=left;verticalAlign=middle;spacingTop=-1;spacingLeft=3;spacingRight=3;rotatable=0;labelPosition=right;points=[];portConstraint=eastwest;strokeColor=inherit;" vertex="1" parent="xGdSi-OeFkMIGdHeow2S-274">
          <mxGeometry y="27.428571428571427" width="317" height="8" as="geometry" />
        </mxCell>
        <mxCell id="xGdSi-OeFkMIGdHeow2S-276" value="+start(Stage): void" style="text;strokeColor=none;fillColor=none;align=left;verticalAlign=top;spacingLeft=4;spacingRight=4;overflow=hidden;rotatable=0;points=[[0,0.5],[1,0.5]];portConstraint=eastwest;" vertex="1" parent="xGdSi-OeFkMIGdHeow2S-274">
          <mxGeometry y="35.42857142857143" width="317" height="27" as="geometry" />
        </mxCell>
        <mxCell id="xGdSi-OeFkMIGdHeow2S-277" value="-onClose(FloorSubsystemController): void" style="text;strokeColor=none;fillColor=none;align=left;verticalAlign=top;spacingLeft=4;spacingRight=4;overflow=hidden;rotatable=0;points=[[0,0.5],[1,0.5]];portConstraint=eastwest;" vertex="1" parent="xGdSi-OeFkMIGdHeow2S-274">
          <mxGeometry y="62.42857142857143" width="317" height="27" as="geometry" />
        </mxCell>
        <mxCell id="xGdSi-OeFkMIGdHeow2S-278" value="SchedulerLauncher" style="swimlane;fontStyle=1;align=center;verticalAlign=top;childLayout=stackLayout;horizontal=1;startSize=27.428571428571427;horizontalStack=0;resizeParent=1;resizeParentMax=0;resizeLast=0;collapsible=0;marginBottom=0;" vertex="1" parent="1">
          <mxGeometry x="3070" y="239" width="276" height="89.42857142857143" as="geometry" />
        </mxCell>
        <mxCell id="xGdSi-OeFkMIGdHeow2S-279" style="line;strokeWidth=1;fillColor=none;align=left;verticalAlign=middle;spacingTop=-1;spacingLeft=3;spacingRight=3;rotatable=0;labelPosition=right;points=[];portConstraint=eastwest;strokeColor=inherit;" vertex="1" parent="xGdSi-OeFkMIGdHeow2S-278">
          <mxGeometry y="27.428571428571427" width="276" height="8" as="geometry" />
        </mxCell>
        <mxCell id="xGdSi-OeFkMIGdHeow2S-280" value="+start(Stage): void" style="text;strokeColor=none;fillColor=none;align=left;verticalAlign=top;spacingLeft=4;spacingRight=4;overflow=hidden;rotatable=0;points=[[0,0.5],[1,0.5]];portConstraint=eastwest;" vertex="1" parent="xGdSi-OeFkMIGdHeow2S-278">
          <mxGeometry y="35.42857142857143" width="276" height="27" as="geometry" />
        </mxCell>
        <mxCell id="xGdSi-OeFkMIGdHeow2S-281" value="-onClose(SchedulerController): void" style="text;strokeColor=none;fillColor=none;align=left;verticalAlign=top;spacingLeft=4;spacingRight=4;overflow=hidden;rotatable=0;points=[[0,0.5],[1,0.5]];portConstraint=eastwest;" vertex="1" parent="xGdSi-OeFkMIGdHeow2S-278">
          <mxGeometry y="62.42857142857143" width="276" height="27" as="geometry" />
        </mxCell>
        <mxCell id="xGdSi-OeFkMIGdHeow2S-282" value="" style="curved=1;startArrow=block;startSize=16;startFill=0;endArrow=none;exitX=0.13136571271037592;exitY=0.9951923076923077;entryX=0.3474468904657691;entryY=0;rounded=0;" edge="1" parent="1" source="xGdSi-OeFkMIGdHeow2S-20" target="xGdSi-OeFkMIGdHeow2S-23">
          <mxGeometry relative="1" as="geometry">
            <Array as="points">
              <mxPoint x="92" y="586" />
              <mxPoint x="92" y="924" />
            </Array>
          </mxGeometry>
        </mxCell>
        <mxCell id="xGdSi-OeFkMIGdHeow2S-283" value="" style="curved=1;startArrow=block;startSize=16;startFill=0;endArrow=none;exitX=0.3795255304600821;exitY=0.9951923076923077;entryX=0.5001787605932203;entryY=0;rounded=0;" edge="1" parent="1" source="xGdSi-OeFkMIGdHeow2S-20" target="xGdSi-OeFkMIGdHeow2S-36">
          <mxGeometry relative="1" as="geometry">
            <Array as="points">
              <mxPoint x="277" y="586" />
            </Array>
          </mxGeometry>
        </mxCell>
        <mxCell id="xGdSi-OeFkMIGdHeow2S-284" value="" style="curved=1;startArrow=block;startSize=16;startFill=0;endArrow=none;exitX=0.6245894504559485;exitY=0.9951923076923077;entryX=0.39103462461418736;entryY=0;rounded=0;" edge="1" parent="1" source="xGdSi-OeFkMIGdHeow2S-20" target="xGdSi-OeFkMIGdHeow2S-44">
          <mxGeometry relative="1" as="geometry">
            <Array as="points">
              <mxPoint x="459" y="586" />
              <mxPoint x="459" y="924" />
            </Array>
          </mxGeometry>
        </mxCell>
        <mxCell id="xGdSi-OeFkMIGdHeow2S-285" value="" style="curved=1;startArrow=block;startSize=16;startFill=0;endArrow=none;exitX=0.8745438394460161;exitY=0.9951923076923077;entryX=0.4985103283898305;entryY=0;rounded=0;" edge="1" parent="1" source="xGdSi-OeFkMIGdHeow2S-20" target="xGdSi-OeFkMIGdHeow2S-53">
          <mxGeometry relative="1" as="geometry">
            <Array as="points">
              <mxPoint x="645" y="586" />
            </Array>
          </mxGeometry>
        </mxCell>
        <mxCell id="xGdSi-OeFkMIGdHeow2S-286" value="" style="curved=1;startArrow=block;startSize=16;startFill=0;endArrow=none;exitX=1.0008647423664123;exitY=0.8990519422522174;entryX=0.41325725103437727;entryY=0;rounded=0;" edge="1" parent="1" source="xGdSi-OeFkMIGdHeow2S-20" target="xGdSi-OeFkMIGdHeow2S-61">
          <mxGeometry relative="1" as="geometry">
            <Array as="points">
              <mxPoint x="827" y="586" />
              <mxPoint x="827" y="924" />
            </Array>
          </mxGeometry>
        </mxCell>
        <mxCell id="xGdSi-OeFkMIGdHeow2S-287" value="" style="curved=1;startArrow=block;startSize=16;startFill=0;endArrow=none;exitX=1.0008647423664123;exitY=0.6910680750876051;entryX=0.5014212472098214;entryY=0;rounded=0;" edge="1" parent="1" source="xGdSi-OeFkMIGdHeow2S-20" target="xGdSi-OeFkMIGdHeow2S-68">
          <mxGeometry relative="1" as="geometry">
            <Array as="points">
              <mxPoint x="1316" y="586" />
            </Array>
          </mxGeometry>
        </mxCell>
        <mxCell id="xGdSi-OeFkMIGdHeow2S-288" value="" style="curved=1;startArrow=none;endArrow=open;endSize=12;exitX=0.4984110169491525;exitY=1;entryX=0.5000958588957055;entryY=0;rounded=0;" edge="1" parent="1" source="xGdSi-OeFkMIGdHeow2S-23" target="xGdSi-OeFkMIGdHeow2S-80">
          <mxGeometry relative="1" as="geometry">
            <Array as="points" />
          </mxGeometry>
        </mxCell>
        <mxCell id="xGdSi-OeFkMIGdHeow2S-289" value="" style="curved=1;startArrow=none;endArrow=open;endSize=12;exitX=0.5001787605932203;exitY=1;entryX=0.6531894095235877;entryY=0;rounded=0;" edge="1" parent="1" source="xGdSi-OeFkMIGdHeow2S-36" target="xGdSi-OeFkMIGdHeow2S-23">
          <mxGeometry relative="1" as="geometry">
            <Array as="points">
              <mxPoint x="277" y="924" />
            </Array>
          </mxGeometry>
        </mxCell>
        <mxCell id="xGdSi-OeFkMIGdHeow2S-290" value="" style="curved=1;startArrow=none;endArrow=open;endSize=12;exitX=0.5000264830508474;exitY=1;entryX=0.5000249600638977;entryY=0;rounded=0;" edge="1" parent="1" source="xGdSi-OeFkMIGdHeow2S-44" target="xGdSi-OeFkMIGdHeow2S-136">
          <mxGeometry relative="1" as="geometry">
            <Array as="points" />
          </mxGeometry>
        </mxCell>
        <mxCell id="xGdSi-OeFkMIGdHeow2S-291" value="" style="curved=1;startArrow=none;endArrow=open;endSize=12;exitX=0.4985103283898305;exitY=1;entryX=0.6078893403433733;entryY=0;rounded=0;" edge="1" parent="1" source="xGdSi-OeFkMIGdHeow2S-53" target="xGdSi-OeFkMIGdHeow2S-44">
          <mxGeometry relative="1" as="geometry">
            <Array as="points">
              <mxPoint x="645" y="924" />
            </Array>
          </mxGeometry>
        </mxCell>
        <mxCell id="xGdSi-OeFkMIGdHeow2S-292" value="" style="curved=1;startArrow=none;endArrow=open;endSize=12;exitX=0.49846398305084744;exitY=1;entryX=0.5001455745341615;entryY=-0.00101010101010101;rounded=0;" edge="1" parent="1" source="xGdSi-OeFkMIGdHeow2S-61" target="xGdSi-OeFkMIGdHeow2S-162">
          <mxGeometry relative="1" as="geometry">
            <Array as="points" />
          </mxGeometry>
        </mxCell>
        <mxCell id="xGdSi-OeFkMIGdHeow2S-293" value="" style="curved=1;startArrow=none;endArrow=open;endSize=12;exitX=0.5204406893061864;exitY=1;entryX=0.5015305739182693;entryY=0;rounded=0;" edge="1" parent="1" source="xGdSi-OeFkMIGdHeow2S-68" target="xGdSi-OeFkMIGdHeow2S-183">
          <mxGeometry relative="1" as="geometry">
            <Array as="points">
              <mxPoint x="1326" y="924" />
            </Array>
          </mxGeometry>
        </mxCell>
        <mxCell id="xGdSi-OeFkMIGdHeow2S-294" value="" style="curved=1;startArrow=none;endArrow=open;endSize=12;exitX=0.11571661980597524;exitY=1;entryX=0.6759565806847512;entryY=0;rounded=0;" edge="1" parent="1" source="xGdSi-OeFkMIGdHeow2S-68" target="xGdSi-OeFkMIGdHeow2S-61">
          <mxGeometry relative="1" as="geometry">
            <Array as="points">
              <mxPoint x="1113" y="924" />
            </Array>
          </mxGeometry>
        </mxCell>
      </root>
    </mxGraphModel>
  </diagram>
</mxfile>
